<svg xmlns="http://www.w3.org/2000/svg" width="244.1211395263672" height="171.1475830078125" viewBox="-116.75489807128906 -51.95478057861328 244.1211395263672 171.1475830078125"><title>Neo4j Graph Visualization</title><desc>Created using Neo4j (http://www.neo4j.com/)</desc><g class="layer relationships"><g class="relationship" transform="translate(-0.6131510154109785 90.19279478414778) rotate(313.68617353500196)"><path class="b-outline" fill="#A5ABB6" stroke="none" d="M 25 0.5 L 42.910441935519685 0.5 L 42.910441935519685 -0.5 L 25 -0.5 Z M 93.39091068551969 0.5 L 111.30135262103937 0.5 L 111.30135262103937 3.5 L 118.30135262103937 0 L 111.30135262103937 -3.5 L 111.30135262103937 -0.5 L 93.39091068551969 -0.5 Z"/><text text-anchor="middle" pointer-events="none" font-size="8px" fill="#000000" x="68.15067631051969" y="3" font-family="Helvetica Neue, Helvetica, Arial, sans-serif">authored_by</text></g><g class="relationship" transform="translate(-0.6131510154109785 90.19279478414778) rotate(232.39797007340127)"><path class="b-outline" fill="#A5ABB6" stroke="none" d="M 25 0.5 L 47.55972849865988 0.5 L 47.55972849865988 -0.5 L 25 -0.5 Z M 88.25504099865988 0.5 L 110.81476949731976 0.5 L 110.81476949731976 3.5 L 117.81476949731976 0 L 110.81476949731976 -3.5 L 110.81476949731976 -0.5 L 88.25504099865988 -0.5 Z"/><text text-anchor="middle" pointer-events="none" font-size="8px" fill="#000000" x="67.90738474865988" y="3" transform="rotate(180 67.90738474865988 0)" font-family="Helvetica Neue, Helvetica, Arial, sans-serif">edited_by</text></g></g><g class="layer nodes"><g class="node" aria-label="graph-node3168596" transform="translate(-0.6131510154109785,90.19279478414778)"><circle class="b-outline" cx="0" cy="0" r="25" fill="#8DCC93" stroke="#5db665" stroke-width="2px"/><text class="caption" text-anchor="middle" pointer-events="none" x="0" y="5" font-size="10px" fill="#2A2C34" font-family="Helvetica Neue, Helvetica, Arial, sans-serif"> </text></g><g class="node" aria-label="graph-node12697903" transform="translate(98.36622911165011,-13.433263582858602)"><circle class="b-outline" cx="0" cy="0" r="25" fill="#D9C8AE" stroke="#c0a378" stroke-width="2px"/><text class="caption" text-anchor="middle" pointer-events="none" x="0" y="-5" font-size="10px" fill="#2A2C34" font-family="Helvetica Neue, Helvetica, Arial, sans-serif"> Dummy</text><text class="caption" text-anchor="middle" pointer-events="none" x="0" y="5" font-size="10px" fill="#2A2C34" font-family="Helvetica Neue, Helvetica, Arial, sans-serif"> student</text><text class="caption" text-anchor="middle" pointer-events="none" x="0" y="15" font-size="10px" fill="#2A2C34" font-family="Helvetica Neue, Helvetica, Arial, sans-serif"> MO…</text></g><g class="node" aria-label="graph-node53" transform="translate(-87.754900707011,-22.954780741177093)"><circle class="b-outline" cx="0" cy="0" r="25" fill="#C990C0" stroke="#b261a5" stroke-width="2px"/><text class="caption" text-anchor="middle" pointer-events="none" x="0" y="0" font-size="10px" fill="#FFFFFF" font-family="Helvetica Neue, Helvetica, Arial, sans-serif"> Changed</text><text class="caption" text-anchor="middle" pointer-events="none" x="0" y="10" font-size="10px" fill="#FFFFFF" font-family="Helvetica Neue, Helvetica, Arial, sans-serif"> editor</text></g></g></svg>