<svg xmlns="http://www.w3.org/2000/svg" width="244.1211395263672" height="171.1475830078125" viewBox="-116.75489807128906 -51.95478057861328 244.1211395263672 171.1475830078125"><title>Neo4j Graph Visualization</title><desc>Created using Neo4j (http://www.neo4j.com/)</desc><g class="layer relationships"><g class="relationship" transform="translate(98.36622911165011 -13.433263582858594) rotate(493.6861735350019)"><path class="b-outline" fill="#A5ABB6" stroke="none" d="M 25 0.5 L 47.584270060519685 0.5 L 47.584270060519685 -0.5 L 25 -0.5 Z M 88.71708256051969 0.5 L 111.30135262103937 0.5 L 111.30135262103937 3.5 L 118.30135262103937 0 L 111.30135262103937 -3.5 L 111.30135262103937 -0.5 L 88.71708256051969 -0.5 Z"/><text text-anchor="middle" pointer-events="none" font-size="8px" fill="#000000" x="68.15067631051969" y="3" transform="rotate(180 68.15067631051969 0)" font-family="Helvetica Neue, Helvetica, Arial, sans-serif">is_part_of</text></g><g class="relationship" transform="translate(-87.75490070701099 -22.954780741177085) rotate(412.39797007340127)"><path class="b-outline" fill="#A5ABB6" stroke="none" d="M 25 0.5 L 47.340978498659865 0.5 L 47.340978498659865 -0.5 L 25 -0.5 Z M 88.47379099865987 0.5 L 110.81476949731973 0.5 L 110.81476949731973 3.5 L 117.81476949731973 0 L 110.81476949731973 -3.5 L 110.81476949731973 -0.5 L 88.47379099865987 -0.5 Z"/><text text-anchor="middle" pointer-events="none" font-size="8px" fill="#000000" x="67.90738474865987" y="3" font-family="Helvetica Neue, Helvetica, Arial, sans-serif">is_part_of</text></g></g><g class="layer nodes"><g class="node" aria-label="graph-node12698007" transform="translate(-0.6131510154109745,90.1927947841478)"><circle class="b-outline" cx="0" cy="0" r="25" fill="#569480" stroke="#447666" stroke-width="2px"/><text class="caption" text-anchor="middle" pointer-events="none" x="0" y="5" font-size="10px" fill="#FFFFFF" font-family="Helvetica Neue, Helvetica, Arial, sans-serif"> </text></g><g class="node" aria-label="graph-node3245349" transform="translate(98.36622911165011,-13.433263582858594)"><circle class="b-outline" cx="0" cy="0" r="25" fill="#8DCC93" stroke="#5db665" stroke-width="2px"/><text class="caption" text-anchor="middle" pointer-events="none" x="0" y="5" font-size="10px" fill="#2A2C34" font-family="Helvetica Neue, Helvetica, Arial, sans-serif"> </text></g><g class="node" aria-label="graph-node3288617" transform="translate(-87.75490070701099,-22.954780741177085)"><circle class="b-outline" cx="0" cy="0" r="25" fill="#8DCC93" stroke="#5db665" stroke-width="2px"/><text class="caption" text-anchor="middle" pointer-events="none" x="0" y="5" font-size="10px" fill="#2A2C34" font-family="Helvetica Neue, Helvetica, Arial, sans-serif"> </text></g></g></svg>