<svg xmlns="http://www.w3.org/2000/svg" width="517.5978393554688" height="533.4044799804688" viewBox="-234.17156982421875 -313.3782958984375 517.5978393554688 533.4044799804688"><title>Neo4j Graph Visualization</title><desc>Created using Neo4j (http://www.neo4j.com/)</desc><g class="layer relationships"><g class="relationship" transform="translate(85.51802131853522 132.0906341746269) rotate(258.7303371198135)"><path class="b-outline" fill="#A5ABB6" stroke="none" d="M 25 0.5 L 79.44087467646928 0.5 L 79.44087467646928 -0.5 L 25 -0.5 Z M 120.57368717646928 0.5 L 175.01456185293856 0.5 L 175.01456185293856 3.5 L 182.01456185293856 0 L 175.01456185293856 -3.5 L 175.01456185293856 -0.5 L 120.57368717646928 -0.5 Z"/><text text-anchor="middle" pointer-events="none" font-size="8px" fill="#000000" x="100.00728092646928" y="3" transform="rotate(180 100.00728092646928 0)" font-family="Helvetica Neue, Helvetica, Arial, sans-serif">is_part_of</text></g><g class="relationship" transform="translate(-2.8815504858843646 98.2457757260184) rotate(285.8221915386529)"><path class="b-outline" fill="#A5ABB6" stroke="none" d="M 25 0.5 L 63.85372328755999 0.5 L 63.85372328755999 -0.5 L 25 -0.5 Z M 104.98653578755999 0.5 L 143.84025907511997 0.5 L 143.84025907511997 3.5 L 150.84025907511997 0 L 143.84025907511997 -3.5 L 143.84025907511997 -0.5 L 104.98653578755999 -0.5 Z"/><text text-anchor="middle" pointer-events="none" font-size="8px" fill="#000000" x="84.42012953755999" y="3" font-family="Helvetica Neue, Helvetica, Arial, sans-serif">is_part_of</text></g><g class="relationship" transform="translate(68.23560195037959 36.523490524873246) rotate(257.83004534777547)"><path class="b-outline" fill="#A5ABB6" stroke="none" d="M 25 0.5 L 30.89671298035438 0.5 L 30.89671298035438 -0.5 L 25 -0.5 Z M 72.02952548035438 0.5 L 77.92623846070876 0.5 L 77.92623846070876 3.5 L 84.92623846070876 0 L 77.92623846070876 -3.5 L 77.92623846070876 -0.5 L 72.02952548035438 -0.5 Z"/><text text-anchor="middle" pointer-events="none" font-size="8px" fill="#000000" x="51.46311923035438" y="3" transform="rotate(180 51.46311923035438 0)" font-family="Helvetica Neue, Helvetica, Arial, sans-serif">is_part_of</text></g><g class="relationship" transform="translate(179.40405236167453 136.73323345796297) rotate(237.10051203170337)"><path class="b-outline" fill="#A5ABB6" stroke="none" d="M 25 0.5 L 99.59929693573245 0.5 L 99.59929693573245 -0.5 L 25 -0.5 Z M 140.73210943573247 0.5 L 215.3314063714649 0.5 L 215.3314063714649 3.5 L 222.3314063714649 0 L 215.3314063714649 -3.5 L 215.3314063714649 -0.5 L 140.73210943573247 -0.5 Z"/><text text-anchor="middle" pointer-events="none" font-size="8px" fill="#000000" x="120.16570318573245" y="3" transform="rotate(180 120.16570318573245 0)" font-family="Helvetica Neue, Helvetica, Arial, sans-serif">is_part_of</text></g><g class="relationship" transform="translate(241.27118914068464 -24.093723868013925) rotate(193.4262311100826)"><path class="b-outline" fill="#A5ABB6" stroke="none" d="M 25 0.5 L 76.79485532645728 0.5 L 76.79485532645728 -0.5 L 25 -0.5 Z M 117.92766782645728 0.5 L 169.72252315291456 0.5 L 169.72252315291456 3.5 L 176.72252315291456 0 L 169.72252315291456 -3.5 L 169.72252315291456 -0.5 L 117.92766782645728 -0.5 Z"/><text text-anchor="middle" pointer-events="none" font-size="8px" fill="#000000" x="97.36126157645728" y="3" transform="rotate(180 97.36126157645728 0)" font-family="Helvetica Neue, Helvetica, Arial, sans-serif">is_part_of</text></g><g class="relationship" transform="translate(235.04313477684983 -120.43336316866805) rotate(525.3958752573968)"><path class="b-outline" fill="#A5ABB6" stroke="none" d="M 25 0.5 L 74.09577723381207 0.5 L 74.09577723381207 -0.5 L 25 -0.5 Z M 115.22858973381207 0.5 L 164.32436696762414 0.5 L 164.32436696762414 3.5 L 171.32436696762414 0 L 164.32436696762414 -3.5 L 164.32436696762414 -0.5 L 115.22858973381207 -0.5 Z"/><text text-anchor="middle" pointer-events="none" font-size="8px" fill="#000000" x="94.66218348381207" y="3" transform="rotate(180 94.66218348381207 0)" font-family="Helvetica Neue, Helvetica, Arial, sans-serif">is_part_of</text></g><g class="relationship" transform="translate(254.42626177513824 71.78882844804991) rotate(214.28177017899293)"><path class="b-outline" fill="#A5ABB6" stroke="none" d="M 25 0.5 L 102.62495442017295 0.5 L 102.62495442017295 -0.5 L 25 -0.5 Z M 143.75776692017297 0.5 L 221.3827213403459 0.5 L 221.3827213403459 3.5 L 228.3827213403459 0 L 221.3827213403459 -3.5 L 221.3827213403459 -0.5 L 143.75776692017297 -0.5 Z"/><text text-anchor="middle" pointer-events="none" font-size="8px" fill="#000000" x="123.19136067017295" y="3" transform="rotate(180 123.19136067017295 0)" font-family="Helvetica Neue, Helvetica, Arial, sans-serif">is_part_of</text></g><g class="relationship" transform="translate(163.71394770697609 41.65370375191013) rotate(223.4972954540741)"><path class="b-outline" fill="#A5ABB6" stroke="none" d="M 25 0.5 L 57.71676001181109 0.5 L 57.71676001181109 -0.5 L 25 -0.5 Z M 98.84957251181109 0.5 L 131.56633252362218 0.5 L 131.56633252362218 3.5 L 138.56633252362218 0 L 131.56633252362218 -3.5 L 131.56633252362218 -0.5 L 98.84957251181109 -0.5 Z"/><text text-anchor="middle" pointer-events="none" font-size="8px" fill="#000000" x="78.28316626181109" y="3" transform="rotate(180 78.28316626181109 0)" font-family="Helvetica Neue, Helvetica, Arial, sans-serif">is_part_of</text></g><g class="relationship" transform="translate(8.70633747154065 191.0261207524346) rotate(277.90122988378863)"><path class="b-outline" fill="#A5ABB6" stroke="none" d="M 25 0.5 L 108.16818606574572 0.5 L 108.16818606574572 -0.5 L 25 -0.5 Z M 149.30099856574572 0.5 L 232.46918463149143 0.5 L 232.46918463149143 3.5 L 239.46918463149143 0 L 232.46918463149143 -3.5 L 232.46918463149143 -0.5 L 149.30099856574572 -0.5 Z"/><text text-anchor="middle" pointer-events="none" font-size="8px" fill="#000000" x="128.73459231574572" y="3" font-family="Helvetica Neue, Helvetica, Arial, sans-serif">is_part_of</text></g><g class="relationship" transform="translate(149.63506981907068 -53.996536827182396) rotate(189.19926297525893)"><path class="b-outline" fill="#A5ABB6" stroke="none" d="M 25 0.5 L 28.901480798417026 0.5 L 28.901480798417026 -0.5 L 25 -0.5 Z M 70.03429329841703 0.5 L 73.93577409683405 0.5 L 73.93577409683405 3.5 L 80.93577409683405 0 L 73.93577409683405 -3.5 L 73.93577409683405 -0.5 L 70.03429329841703 -0.5 Z"/><text text-anchor="middle" pointer-events="none" font-size="8px" fill="#000000" x="49.467887048417026" y="3" transform="rotate(180 49.467887048417026 0)" font-family="Helvetica Neue, Helvetica, Arial, sans-serif">is_part_of</text></g><g class="relationship" transform="translate(143.31096731826108 -151.20947445779103) rotate(500.7485259998486)"><path class="b-outline" fill="#A5ABB6" stroke="none" d="M 25 0.5 L 39.37119590297442 0.5 L 39.37119590297442 -0.5 L 25 -0.5 Z M 80.50400840297442 0.5 L 94.87520430594884 0.5 L 94.87520430594884 3.5 L 101.87520430594884 0 L 94.87520430594884 -3.5 L 94.87520430594884 -0.5 L 80.50400840297442 -0.5 Z"/><text text-anchor="middle" pointer-events="none" font-size="8px" fill="#000000" x="59.93760215297442" y="3" transform="rotate(180 59.93760215297442 0)" font-family="Helvetica Neue, Helvetica, Arial, sans-serif">is_part_of</text></g><g class="relationship" transform="translate(211.79414737910346 -217.89781776779722) rotate(498.6055772009214)"><path class="b-outline" fill="#A5ABB6" stroke="none" d="M 25 0.5 L 87.06249189919954 0.5 L 87.06249189919954 -0.5 L 25 -0.5 Z M 128.19530439919953 0.5 L 190.2577962983991 0.5 L 190.2577962983991 3.5 L 197.2577962983991 0 L 190.2577962983991 -3.5 L 190.2577962983991 -0.5 L 128.19530439919953 -0.5 Z"/><text text-anchor="middle" pointer-events="none" font-size="8px" fill="#000000" x="107.62889814919954" y="3" transform="rotate(180 107.62889814919954 0)" font-family="Helvetica Neue, Helvetica, Arial, sans-serif">is_part_of</text></g><g class="relationship" transform="translate(119.85582279358233 -249.37289222806024) rotate(472.74117286824406)"><path class="b-outline" fill="#A5ABB6" stroke="none" d="M 25 0.5 L 72.67445805538026 0.5 L 72.67445805538026 -0.5 L 25 -0.5 Z M 113.80727055538026 0.5 L 161.4817286107605 0.5 L 161.4817286107605 3.5 L 168.4817286107605 0 L 161.4817286107605 -3.5 L 161.4817286107605 -0.5 L 113.80727055538026 -0.5 Z"/><text text-anchor="middle" pointer-events="none" font-size="8px" fill="#000000" x="93.24086430538026" y="3" transform="rotate(180 93.24086430538026 0)" font-family="Helvetica Neue, Helvetica, Arial, sans-serif">is_part_of</text></g><g class="relationship" transform="translate(51.72913506504625 -181.4214927253995) rotate(453.45325319173355)"><path class="b-outline" fill="#A5ABB6" stroke="none" d="M 25 0.5 L 31.27866703948534 0.5 L 31.27866703948534 -0.5 L 25 -0.5 Z M 72.41147953948534 0.5 L 78.69014657897068 0.5 L 78.69014657897068 3.5 L 85.69014657897068 0 L 78.69014657897068 -3.5 L 78.69014657897068 -0.5 L 72.41147953948534 -0.5 Z"/><text text-anchor="middle" pointer-events="none" font-size="8px" fill="#000000" x="51.84507328948534" y="3" transform="rotate(180 51.84507328948534 0)" font-family="Helvetica Neue, Helvetica, Arial, sans-serif">is_part_of</text></g><g class="relationship" transform="translate(25.17046354592379 -276.9746563421181) rotate(444.48574905778275)"><path class="b-outline" fill="#A5ABB6" stroke="none" d="M 25 0.5 L 79.43372202415625 0.5 L 79.43372202415625 -0.5 L 25 -0.5 Z M 120.56653452415625 0.5 L 175.0002565483125 0.5 L 175.0002565483125 3.5 L 182.0002565483125 0 L 175.0002565483125 -3.5 L 175.0002565483125 -0.5 L 120.56653452415625 -0.5 Z"/><text text-anchor="middle" pointer-events="none" font-size="8px" fill="#000000" x="100.00012827415625" y="3" font-family="Helvetica Neue, Helvetica, Arial, sans-serif">is_part_of</text></g><g class="relationship" transform="translate(-97.81843105496877 -284.37828594137096) rotate(416.2017378537865)"><path class="b-outline" fill="#A5ABB6" stroke="none" d="M 25 0.5 L 104.36055656629159 0.5 L 104.36055656629159 -0.5 L 25 -0.5 Z M 145.4933690662916 0.5 L 224.85392563258318 0.5 L 224.85392563258318 3.5 L 231.85392563258318 0 L 224.85392563258318 -3.5 L 224.85392563258318 -0.5 L 145.4933690662916 -0.5 Z"/><text text-anchor="middle" pointer-events="none" font-size="8px" fill="#000000" x="124.92696281629159" y="3" font-family="Helvetica Neue, Helvetica, Arial, sans-serif">is_part_of</text></g><g class="relationship" transform="translate(-138.19552269688594 -194.61303373648337) rotate(394.0154850684057)"><path class="b-outline" fill="#A5ABB6" stroke="none" d="M 25 0.5 L 86.4778900926446 0.5 L 86.4778900926446 -0.5 L 25 -0.5 Z M 127.6107025926446 0.5 L 189.0885926852892 0.5 L 189.0885926852892 3.5 L 196.0885926852892 0 L 189.0885926852892 -3.5 L 189.0885926852892 -0.5 L 127.6107025926446 -0.5 Z"/><text text-anchor="middle" pointer-events="none" font-size="8px" fill="#000000" x="107.0442963426446" y="3" font-family="Helvetica Neue, Helvetica, Arial, sans-serif">is_part_of</text></g><g class="relationship" transform="translate(-40.07663590021312 -208.4265132106745) rotate(418.2335925310605)"><path class="b-outline" fill="#A5ABB6" stroke="none" d="M 25 0.5 L 56.79335698383383 0.5 L 56.79335698383383 -0.5 L 25 -0.5 Z M 97.92616948383383 0.5 L 129.71952646766766 0.5 L 129.71952646766766 3.5 L 136.71952646766766 0 L 129.71952646766766 -3.5 L 129.71952646766766 -0.5 L 97.92616948383383 -0.5 Z"/><text text-anchor="middle" pointer-events="none" font-size="8px" fill="#000000" x="77.35976323383383" y="3" font-family="Helvetica Neue, Helvetica, Arial, sans-serif">is_part_of</text></g><g class="relationship" transform="translate(-74.49393972459131 -119.60026096606612) rotate(382.14991752492193)"><path class="b-outline" fill="#A5ABB6" stroke="none" d="M 25 0.5 L 40.474558089894515 0.5 L 40.474558089894515 -0.5 L 25 -0.5 Z M 81.60737058989451 0.5 L 97.08192867978903 0.5 L 97.08192867978903 3.5 L 104.08192867978903 0 L 97.08192867978903 -3.5 L 97.08192867978903 -0.5 L 81.60737058989451 -0.5 Z"/><text text-anchor="middle" pointer-events="none" font-size="8px" fill="#000000" x="61.040964339894515" y="3" font-family="Helvetica Neue, Helvetica, Arial, sans-serif">is_part_of</text></g><g class="relationship" transform="translate(-173.36334079261138 -104.9801078816893) rotate(368.859878425583)"><path class="b-outline" fill="#A5ABB6" stroke="none" d="M 25 0.5 L 86.46503349114732 0.5 L 86.46503349114732 -0.5 L 25 -0.5 Z M 127.59784599114732 0.5 L 189.06287948229465 0.5 L 189.06287948229465 3.5 L 196.06287948229465 0 L 189.06287948229465 -3.5 L 189.06287948229465 -0.5 L 127.59784599114732 -0.5 Z"/><text text-anchor="middle" pointer-events="none" font-size="8px" fill="#000000" x="107.03143974114732" y="3" font-family="Helvetica Neue, Helvetica, Arial, sans-serif">is_part_of</text></g><g class="relationship" transform="translate(-82.24979250623991 157.57763981345641) rotate(299.1238436216762)"><path class="b-outline" fill="#A5ABB6" stroke="none" d="M 25 0.5 L 106.72450453624268 0.5 L 106.72450453624268 -0.5 L 25 -0.5 Z M 147.85731703624268 0.5 L 229.58182157248535 0.5 L 229.58182157248535 3.5 L 236.58182157248535 0 L 229.58182157248535 -3.5 L 229.58182157248535 -0.5 L 147.85731703624268 -0.5 Z"/><text text-anchor="middle" pointer-events="none" font-size="8px" fill="#000000" x="127.29091078624268" y="3" font-family="Helvetica Neue, Helvetica, Arial, sans-serif">is_part_of</text></g><g class="relationship" transform="translate(-205.171568080688 -10.047171267948086) rotate(346.3248925295811)"><path class="b-outline" fill="#A5ABB6" stroke="none" d="M 25 0.5 L 104.70057780353417 0.5 L 104.70057780353417 -0.5 L 25 -0.5 Z M 145.83339030353417 0.5 L 225.53396810706835 0.5 L 225.53396810706835 3.5 L 232.53396810706835 0 L 225.53396810706835 -3.5 L 225.53396810706835 -0.5 L 145.83339030353417 -0.5 Z"/><text text-anchor="middle" pointer-events="none" font-size="8px" fill="#000000" x="125.26698405353417" y="3" font-family="Helvetica Neue, Helvetica, Arial, sans-serif">is_part_of</text></g><g class="relationship" transform="translate(-92.46151249536844 65.70904703820224) rotate(315.18431072839)"><path class="b-outline" fill="#A5ABB6" stroke="none" d="M 25 0.5 L 72.86595317902204 0.5 L 72.86595317902204 -0.5 L 25 -0.5 Z M 113.99876567902204 0.5 L 161.86471885804409 0.5 L 161.86471885804409 3.5 L 168.86471885804409 0 L 161.86471885804409 -3.5 L 161.86471885804409 -0.5 L 113.99876567902204 -0.5 Z"/><text text-anchor="middle" pointer-events="none" font-size="8px" fill="#000000" x="93.43235942902204" y="3" font-family="Helvetica Neue, Helvetica, Arial, sans-serif">is_part_of</text></g><g class="relationship" transform="translate(-113.20933475203789 -32.69520006403336) rotate(346.41802107153455)"><path class="b-outline" fill="#A5ABB6" stroke="none" d="M 25 0.5 L 57.34586635959742 0.5 L 57.34586635959742 -0.5 L 25 -0.5 Z M 98.47867885959742 0.5 L 130.82454521919485 0.5 L 130.82454521919485 3.5 L 137.82454521919485 0 L 130.82454521919485 -3.5 L 130.82454521919485 -0.5 L 98.47867885959742 -0.5 Z"/><text text-anchor="middle" pointer-events="none" font-size="8px" fill="#000000" x="77.91227260959742" y="3" font-family="Helvetica Neue, Helvetica, Arial, sans-serif">is_part_of</text></g><g class="relationship" transform="translate(-20.67763639458263 1.4569542740291346) rotate(312.2437754801127)"><path class="b-outline" fill="#A5ABB6" stroke="none" d="M 25 0.5 L 26.386580815579237 0.5 L 26.386580815579237 -0.5 L 25 -0.5 Z M 64.39829956557924 0.5 L 65.78488038115847 0.5 L 65.78488038115847 3.5 L 72.78488038115847 0 L 65.78488038115847 -3.5 L 65.78488038115847 -0.5 L 64.39829956557924 -0.5 Z"/><text text-anchor="middle" pointer-events="none" font-size="8px" fill="#000000" x="45.39244019057924" y="3" font-family="Helvetica Neue, Helvetica, Arial, sans-serif">is_part…</text></g><g class="relationship" transform="translate(-184.75119129962815 86.23763264525805) rotate(325.6316309461496)"><path class="b-outline" fill="#A5ABB6" stroke="none" d="M 25 0.5 L 115.1424398285786 0.5 L 115.1424398285786 -0.5 L 25 -0.5 Z M 156.2752523285786 0.5 L 246.4176921571572 0.5 L 246.4176921571572 3.5 L 253.4176921571572 0 L 246.4176921571572 -3.5 L 246.4176921571572 -0.5 L 156.2752523285786 -0.5 Z"/><text text-anchor="middle" pointer-events="none" font-size="8px" fill="#000000" x="135.7088460785786" y="3" font-family="Helvetica Neue, Helvetica, Arial, sans-serif">is_part_of</text></g></g><g class="layer nodes"><g class="node" aria-label="graph-node12698009" transform="translate(45.061807577149004,-70.93232903120212)"><circle class="b-outline" cx="0" cy="0" r="25" fill="#569480" stroke="#447666" stroke-width="2px"/><text class="caption" text-anchor="middle" pointer-events="none" x="0" y="5" font-size="10px" fill="#FFFFFF" font-family="Helvetica Neue, Helvetica, Arial, sans-serif"> </text></g><g class="node" aria-label="graph-node3168635" transform="translate(85.51802131853522,132.0906341746269)"><circle class="b-outline" cx="0" cy="0" r="25" fill="#8DCC93" stroke="#5db665" stroke-width="2px"/><text class="caption" text-anchor="middle" pointer-events="none" x="0" y="5" font-size="10px" fill="#2A2C34" font-family="Helvetica Neue, Helvetica, Arial, sans-serif"> </text></g><g class="node" aria-label="graph-node3230175" transform="translate(-2.8815504858843646,98.2457757260184)"><circle class="b-outline" cx="0" cy="0" r="25" fill="#8DCC93" stroke="#5db665" stroke-width="2px"/><text class="caption" text-anchor="middle" pointer-events="none" x="0" y="5" font-size="10px" fill="#2A2C34" font-family="Helvetica Neue, Helvetica, Arial, sans-serif"> </text></g><g class="node" aria-label="graph-node3230281" transform="translate(68.23560195037959,36.523490524873246)"><circle class="b-outline" cx="0" cy="0" r="25" fill="#8DCC93" stroke="#5db665" stroke-width="2px"/><text class="caption" text-anchor="middle" pointer-events="none" x="0" y="5" font-size="10px" fill="#2A2C34" font-family="Helvetica Neue, Helvetica, Arial, sans-serif"> </text></g><g class="node" aria-label="graph-node3230677" transform="translate(179.40405236167453,136.73323345796297)"><circle class="b-outline" cx="0" cy="0" r="25" fill="#8DCC93" stroke="#5db665" stroke-width="2px"/><text class="caption" text-anchor="middle" pointer-events="none" x="0" y="5" font-size="10px" fill="#2A2C34" font-family="Helvetica Neue, Helvetica, Arial, sans-serif"> </text></g><g class="node" aria-label="graph-node3231944" transform="translate(241.27118914068464,-24.093723868013925)"><circle class="b-outline" cx="0" cy="0" r="25" fill="#8DCC93" stroke="#5db665" stroke-width="2px"/><text class="caption" text-anchor="middle" pointer-events="none" x="0" y="5" font-size="10px" fill="#2A2C34" font-family="Helvetica Neue, Helvetica, Arial, sans-serif"> </text></g><g class="node" aria-label="graph-node3232117" transform="translate(235.04313477684983,-120.43336316866805)"><circle class="b-outline" cx="0" cy="0" r="25" fill="#8DCC93" stroke="#5db665" stroke-width="2px"/><text class="caption" text-anchor="middle" pointer-events="none" x="0" y="5" font-size="10px" fill="#2A2C34" font-family="Helvetica Neue, Helvetica, Arial, sans-serif"> </text></g><g class="node" aria-label="graph-node3232202" transform="translate(254.42626177513824,71.78882844804991)"><circle class="b-outline" cx="0" cy="0" r="25" fill="#8DCC93" stroke="#5db665" stroke-width="2px"/><text class="caption" text-anchor="middle" pointer-events="none" x="0" y="5" font-size="10px" fill="#2A2C34" font-family="Helvetica Neue, Helvetica, Arial, sans-serif"> </text></g><g class="node" aria-label="graph-node3238111" transform="translate(163.71394770697609,41.65370375191013)"><circle class="b-outline" cx="0" cy="0" r="25" fill="#8DCC93" stroke="#5db665" stroke-width="2px"/><text class="caption" text-anchor="middle" pointer-events="none" x="0" y="5" font-size="10px" fill="#2A2C34" font-family="Helvetica Neue, Helvetica, Arial, sans-serif"> </text></g><g class="node" aria-label="graph-node3239119" transform="translate(8.70633747154065,191.0261207524346)"><circle class="b-outline" cx="0" cy="0" r="25" fill="#8DCC93" stroke="#5db665" stroke-width="2px"/><text class="caption" text-anchor="middle" pointer-events="none" x="0" y="5" font-size="10px" fill="#2A2C34" font-family="Helvetica Neue, Helvetica, Arial, sans-serif"> </text></g><g class="node" aria-label="graph-node3239269" transform="translate(149.63506981907068,-53.996536827182396)"><circle class="b-outline" cx="0" cy="0" r="25" fill="#8DCC93" stroke="#5db665" stroke-width="2px"/><text class="caption" text-anchor="middle" pointer-events="none" x="0" y="5" font-size="10px" fill="#2A2C34" font-family="Helvetica Neue, Helvetica, Arial, sans-serif"> </text></g><g class="node" aria-label="graph-node3240103" transform="translate(143.31096731826108,-151.20947445779103)"><circle class="b-outline" cx="0" cy="0" r="25" fill="#8DCC93" stroke="#5db665" stroke-width="2px"/><text class="caption" text-anchor="middle" pointer-events="none" x="0" y="5" font-size="10px" fill="#2A2C34" font-family="Helvetica Neue, Helvetica, Arial, sans-serif"> </text></g><g class="node" aria-label="graph-node3240128" transform="translate(211.79414737910346,-217.89781776779722)"><circle class="b-outline" cx="0" cy="0" r="25" fill="#8DCC93" stroke="#5db665" stroke-width="2px"/><text class="caption" text-anchor="middle" pointer-events="none" x="0" y="5" font-size="10px" fill="#2A2C34" font-family="Helvetica Neue, Helvetica, Arial, sans-serif"> </text></g><g class="node" aria-label="graph-node3240248" transform="translate(119.85582279358233,-249.37289222806024)"><circle class="b-outline" cx="0" cy="0" r="25" fill="#8DCC93" stroke="#5db665" stroke-width="2px"/><text class="caption" text-anchor="middle" pointer-events="none" x="0" y="5" font-size="10px" fill="#2A2C34" font-family="Helvetica Neue, Helvetica, Arial, sans-serif"> </text></g><g class="node" aria-label="graph-node3240318" transform="translate(51.72913506504625,-181.4214927253995)"><circle class="b-outline" cx="0" cy="0" r="25" fill="#8DCC93" stroke="#5db665" stroke-width="2px"/><text class="caption" text-anchor="middle" pointer-events="none" x="0" y="5" font-size="10px" fill="#2A2C34" font-family="Helvetica Neue, Helvetica, Arial, sans-serif"> </text></g><g class="node" aria-label="graph-node3242183" transform="translate(25.17046354592379,-276.9746563421181)"><circle class="b-outline" cx="0" cy="0" r="25" fill="#8DCC93" stroke="#5db665" stroke-width="2px"/><text class="caption" text-anchor="middle" pointer-events="none" x="0" y="5" font-size="10px" fill="#2A2C34" font-family="Helvetica Neue, Helvetica, Arial, sans-serif"> </text></g><g class="node" aria-label="graph-node3242260" transform="translate(-97.81843105496877,-284.37828594137096)"><circle class="b-outline" cx="0" cy="0" r="25" fill="#8DCC93" stroke="#5db665" stroke-width="2px"/><text class="caption" text-anchor="middle" pointer-events="none" x="0" y="5" font-size="10px" fill="#2A2C34" font-family="Helvetica Neue, Helvetica, Arial, sans-serif"> </text></g><g class="node" aria-label="graph-node3242681" transform="translate(-138.19552269688594,-194.61303373648337)"><circle class="b-outline" cx="0" cy="0" r="25" fill="#8DCC93" stroke="#5db665" stroke-width="2px"/><text class="caption" text-anchor="middle" pointer-events="none" x="0" y="5" font-size="10px" fill="#2A2C34" font-family="Helvetica Neue, Helvetica, Arial, sans-serif"> </text></g><g class="node" aria-label="graph-node3242827" transform="translate(-40.07663590021312,-208.4265132106745)"><circle class="b-outline" cx="0" cy="0" r="25" fill="#8DCC93" stroke="#5db665" stroke-width="2px"/><text class="caption" text-anchor="middle" pointer-events="none" x="0" y="5" font-size="10px" fill="#2A2C34" font-family="Helvetica Neue, Helvetica, Arial, sans-serif"> </text></g><g class="node" aria-label="graph-node3242930" transform="translate(-74.49393972459131,-119.60026096606612)"><circle class="b-outline" cx="0" cy="0" r="25" fill="#8DCC93" stroke="#5db665" stroke-width="2px"/><text class="caption" text-anchor="middle" pointer-events="none" x="0" y="5" font-size="10px" fill="#2A2C34" font-family="Helvetica Neue, Helvetica, Arial, sans-serif"> </text></g><g class="node" aria-label="graph-node3242998" transform="translate(-173.36334079261138,-104.9801078816893)"><circle class="b-outline" cx="0" cy="0" r="25" fill="#8DCC93" stroke="#5db665" stroke-width="2px"/><text class="caption" text-anchor="middle" pointer-events="none" x="0" y="5" font-size="10px" fill="#2A2C34" font-family="Helvetica Neue, Helvetica, Arial, sans-serif"> </text></g><g class="node" aria-label="graph-node3243028" transform="translate(-82.24979250623991,157.57763981345641)"><circle class="b-outline" cx="0" cy="0" r="25" fill="#8DCC93" stroke="#5db665" stroke-width="2px"/><text class="caption" text-anchor="middle" pointer-events="none" x="0" y="5" font-size="10px" fill="#2A2C34" font-family="Helvetica Neue, Helvetica, Arial, sans-serif"> </text></g><g class="node" aria-label="graph-node3243153" transform="translate(-205.171568080688,-10.047171267948086)"><circle class="b-outline" cx="0" cy="0" r="25" fill="#8DCC93" stroke="#5db665" stroke-width="2px"/><text class="caption" text-anchor="middle" pointer-events="none" x="0" y="5" font-size="10px" fill="#2A2C34" font-family="Helvetica Neue, Helvetica, Arial, sans-serif"> </text></g><g class="node" aria-label="graph-node3244521" transform="translate(-92.46151249536844,65.70904703820224)"><circle class="b-outline" cx="0" cy="0" r="25" fill="#8DCC93" stroke="#5db665" stroke-width="2px"/><text class="caption" text-anchor="middle" pointer-events="none" x="0" y="5" font-size="10px" fill="#2A2C34" font-family="Helvetica Neue, Helvetica, Arial, sans-serif"> </text></g><g class="node" aria-label="graph-node3245049" transform="translate(-113.20933475203789,-32.69520006403336)"><circle class="b-outline" cx="0" cy="0" r="25" fill="#8DCC93" stroke="#5db665" stroke-width="2px"/><text class="caption" text-anchor="middle" pointer-events="none" x="0" y="5" font-size="10px" fill="#2A2C34" font-family="Helvetica Neue, Helvetica, Arial, sans-serif"> </text></g><g class="node" aria-label="graph-node3249527" transform="translate(-20.67763639458263,1.4569542740291346)"><circle class="b-outline" cx="0" cy="0" r="25" fill="#8DCC93" stroke="#5db665" stroke-width="2px"/><text class="caption" text-anchor="middle" pointer-events="none" x="0" y="5" font-size="10px" fill="#2A2C34" font-family="Helvetica Neue, Helvetica, Arial, sans-serif"> </text></g><g class="node" aria-label="graph-node3252297" transform="translate(-184.75119129962815,86.23763264525805)"><circle class="b-outline" cx="0" cy="0" r="25" fill="#8DCC93" stroke="#5db665" stroke-width="2px"/><text class="caption" text-anchor="middle" pointer-events="none" x="0" y="5" font-size="10px" fill="#2A2C34" font-family="Helvetica Neue, Helvetica, Arial, sans-serif"> </text></g></g></svg>