<svg xmlns="http://www.w3.org/2000/svg" width="237.15786743164062" height="331.797607421875" viewBox="-73.04792022705078 -137.5848846435547 237.15786743164062 331.797607421875"><title>Neo4j Graph Visualization</title><desc>Created using Neo4j (http://www.neo4j.com/)</desc><g class="layer relationships"><g class="relationship" transform="translate(100.07293405749105 30.356931065266508) rotate(284.15322315532)"><path class="b-outline" fill="#A5ABB6" stroke="none" d="M 25 0.5 L 47.7980354934094 0.5 L 47.7980354934094 -0.5 L 25 -0.5 Z M 88.4933479934094 0.5 L 111.2913834868188 0.5 L 111.2913834868188 3.5 L 118.2913834868188 0 L 111.2913834868188 -3.5 L 111.2913834868188 -0.5 L 88.4933479934094 -0.5 Z"/><text text-anchor="middle" pointer-events="none" font-size="8px" fill="#000000" x="68.1456917434094" y="3" font-family="Helvetica Neue, Helvetica, Arial, sans-serif">edited_by</text></g><g class="relationship" transform="translate(100.07293405749105 30.356931065266508) rotate(530.8150994913108)"><path class="b-outline" fill="#A5ABB6" stroke="none" d="M 25 0.5 L 48.92995366517117 0.5 L 48.92995366517117 -0.5 L 25 -0.5 Z M 90.06276616517117 0.5 L 113.99271983034234 0.5 L 113.99271983034234 3.5 L 120.99271983034234 0 L 113.99271983034234 -3.5 L 113.99271983034234 -0.5 L 90.06276616517117 -0.5 Z"/><text text-anchor="middle" pointer-events="none" font-size="8px" fill="#000000" x="69.49635991517117" y="3" transform="rotate(180 69.49635991517117 0)" font-family="Helvetica Neue, Helvetica, Arial, sans-serif">is_part_of</text></g><g class="relationship" transform="translate(100.07293405749105 30.356931065266508) rotate(469.7658521845287)"><path class="b-outline" fill="#A5ABB6" stroke="none" d="M 25 0.5 L 42.90905290970912 0.5 L 42.90905290970912 -0.5 L 25 -0.5 Z M 93.38952165970912 0.5 L 111.29857456941824 0.5 L 111.29857456941824 3.5 L 118.29857456941824 0 L 111.29857456941824 -3.5 L 111.29857456941824 -0.5 L 93.38952165970912 -0.5 Z"/><text text-anchor="middle" pointer-events="none" font-size="8px" fill="#000000" x="68.14928728470912" y="3" transform="rotate(180 68.14928728470912 0)" font-family="Helvetica Neue, Helvetica, Arial, sans-serif">authored_by</text></g><g class="relationship" transform="translate(100.07293405749105 30.356931065266508) rotate(222.93147899983148)"><path class="b-outline" fill="#A5ABB6" stroke="none" d="M 25 0.5 L 42.95347864216534 0.5 L 42.95347864216534 -0.5 L 25 -0.5 Z M 96.10191614216534 0.5 L 114.05539478433067 0.5 L 114.05539478433067 3.5 L 121.05539478433067 0 L 114.05539478433067 -3.5 L 114.05539478433067 -0.5 L 96.10191614216534 -0.5 Z"/><text text-anchor="middle" pointer-events="none" font-size="8px" fill="#000000" x="69.52769739216534" y="3" transform="rotate(180 69.52769739216534 0)" font-family="Helvetica Neue, Helvetica, Arial, sans-serif">published_by</text></g></g><g class="layer nodes"><g class="node" aria-label="graph-node12697921" transform="translate(51.61263726235654,165.2127099853951)"><circle class="b-outline" cx="0" cy="0" r="25" fill="#D9C8AE" stroke="#c0a378" stroke-width="2px"/><text class="caption" text-anchor="middle" pointer-events="none" x="0" y="0" font-size="10px" fill="#2A2C34" font-family="Helvetica Neue, Helvetica, Arial, sans-serif"> Amazing</text><text class="caption" text-anchor="middle" pointer-events="none" x="0" y="10" font-size="10px" fill="#2A2C34" font-family="Helvetica Neue, Helvetica, Arial, sans-serif"> author</text></g><g class="node" aria-label="graph-node12697918" transform="translate(100.07293405749105,30.356931065266508)"><circle class="b-outline" cx="0" cy="0" r="25" fill="#8DCC93" stroke="#5db665" stroke-width="2px"/><text class="caption" text-anchor="middle" pointer-events="none" x="0" y="5" font-size="10px" fill="#2A2C34" font-family="Helvetica Neue, Helvetica, Arial, sans-serif"> </text></g><g class="node" aria-label="graph-node12697920" transform="translate(135.10994696698683,-108.58488520307797)"><circle class="b-outline" cx="0" cy="0" r="25" fill="#C990C0" stroke="#b261a5" stroke-width="2px"/><text class="caption" text-anchor="middle" pointer-events="none" x="0" y="0" font-size="10px" fill="#FFFFFF" font-family="Helvetica Neue, Helvetica, Arial, sans-serif"> Polimi</text><text class="caption" text-anchor="middle" pointer-events="none" x="0" y="10" font-size="10px" fill="#FFFFFF" font-family="Helvetica Neue, Helvetica, Arial, sans-serif"> editor</text></g><g class="node" aria-label="graph-node12697917" transform="translate(-6.86426789235088,-69.12479180253173)"><circle class="b-outline" cx="0" cy="0" r="25" fill="#A5ABB6" stroke="#9AA1AC" stroke-width="2px"/><text class="caption" text-anchor="middle" pointer-events="none" x="0" y="5" font-size="10px" fill="#FFFFFF" font-family="Helvetica Neue, Helvetica, Arial, sans-serif"> </text></g><g class="node" aria-label="graph-node12697919" transform="translate(-44.04792043814125,53.66044030549942)"><circle class="b-outline" cx="0" cy="0" r="25" fill="#569480" stroke="#447666" stroke-width="2px"/><text class="caption" text-anchor="middle" pointer-events="none" x="0" y="5" font-size="10px" fill="#FFFFFF" font-family="Helvetica Neue, Helvetica, Arial, sans-serif"> </text></g></g></svg>