<svg xmlns="http://www.w3.org/2000/svg" width="948.757568359375" height="989.1419677734375" viewBox="-483.83013916015625 -464.0194091796875 948.757568359375 989.1419677734375"><title>Neo4j Graph Visualization</title><desc>Created using Neo4j (http://www.neo4j.com/)</desc><g class="layer relationships"><g class="relationship" transform="translate(12.083140877329107 340.1202593876758) rotate(401.7387843497409)"><path class="b-outline" fill="#A5ABB6" stroke="none" d="M 24.018736134675446,-6.953439040707552 L 24.277555179777966,-5.987513214418485 A 177.66684255902157 177.66684255902157 0 0 1 36.50602948023913,-8.805312838534888 L 36.31603855255193,-9.787098684530122 A 178.66684255902157 178.66684255902157 0 0 0 24.018736134675446,-6.953439040707552 Z M 99.9614952329949,-10.555474526882136 L 99.7952619404023,-9.5693880740628 A 177.66684255902157 177.66684255902157 0 0 1 112.08819940652683,-7.0476293836521835 L 111.38192668134995,-4.131951274245858 L 119.00916044933773,-5.8856060431405535 L 113.02989637342931,-10.93520019619395 L 112.32362364825244,-8.019522086787626 A 178.66684255902157 178.66684255902157 0 0 0 99.9614952329949,-10.555474526882136"/><text text-anchor="middle" pointer-events="none" font-size="8px" fill="#000000" x="68.11031027011617" y="-9.528381460561832" font-family="Helvetica Neue, Helvetica, Arial, sans-serif">probably_knows</text></g><g class="relationship" transform="translate(119.01667313224212 435.5244853118872) rotate(280.1983254622678)"><path class="b-outline" fill="#A5ABB6" stroke="none" d="M 24.018736134675446,-6.953439040707552 L 24.277555179777966,-5.987513214418485 A 190.7940244808562 190.7940244808562 0 0 1 39.810669216626394,-9.46223792179768 L 39.633263172162195,-10.446375663878314 A 191.7940244808562 191.7940244808562 0 0 0 24.018736134675446,-6.953439040707552 Z M 103.31206842516534,-11.182432652150595 L 103.15745784176343,-10.194457162829053 A 190.7940244808562 190.7940244808562 0 0 1 118.76673899556873,-7.079704309829764 L 118.0574706097617,-4.164753477157852 L 125.68650233610437,-5.910569881725321 L 119.71243017664479,-10.96630542005898 L 119.00316179083775,-8.051354587387069 A 191.7940244808562 191.7940244808562 0 0 0 103.31206842516534,-11.182432652150595"/><text text-anchor="middle" pointer-events="none" font-size="8px" fill="#000000" x="71.44768146770038" y="-9.975884004199827" font-family="Helvetica Neue, Helvetica, Arial, sans-serif">probably_knows</text></g><g class="relationship" transform="translate(119.01667313224212 435.5244853118872) rotate(221.7387843497409)"><path class="b-outline" fill="#A5ABB6" stroke="none" d="M 24.018736134675446,-6.953439040707552 L 24.277555179777966,-5.987513214418485 A 177.66684255902157 177.66684255902157 0 0 1 36.50602948023913,-8.805312838534888 L 36.31603855255193,-9.787098684530122 A 178.66684255902157 178.66684255902157 0 0 0 24.018736134675446,-6.953439040707552 Z M 99.9614952329949,-10.555474526882136 L 99.7952619404023,-9.5693880740628 A 177.66684255902157 177.66684255902157 0 0 1 112.08819940652683,-7.0476293836521835 L 111.38192668134995,-4.131951274245858 L 119.00916044933773,-5.8856060431405535 L 113.02989637342931,-10.93520019619395 L 112.32362364825244,-8.019522086787626 A 178.66684255902157 178.66684255902157 0 0 0 99.9614952329949,-10.555474526882136"/><text text-anchor="middle" pointer-events="none" font-size="8px" fill="#000000" x="68.11031027011617" y="-9.528381460561832" transform="rotate(180 68.11031027011617 -12.528381460561832)" font-family="Helvetica Neue, Helvetica, Arial, sans-serif">probably_knows</text></g><g class="relationship" transform="translate(145.57113167138118 287.91625719145327) rotate(381.1162810963252)"><path class="b-outline" fill="#A5ABB6" stroke="none" d="M 24.018736134675446,6.953439040707552 L 24.277555179777966,5.987513214418485 A 184.48055475890493 184.48055475890493 0 0 0 38.21985408937725,9.149844016298601 L 38.036611025319566,10.132911653582397 A 185.48055475890493 185.48055475890493 0 0 1 24.018736134675446,6.953439040707552 Z M 101.700366502673,10.884180125548141 L 101.54037274840164,9.897062098869384 A 184.48055475890493 184.48055475890493 0 0 0 115.55341338078304,7.064620180601544 L 114.84555378167447,4.149326921262126 L 122.47374091909312,5.8988299925714385 L 116.49722617959448,10.951677859720768 L 115.7893665804859,8.03638460038135 A 185.48055475890493 185.48055475890493 0 0 1 101.700366502673,10.884180125548141"/><text text-anchor="middle" pointer-events="none" font-size="8px" fill="#000000" x="69.84191256860116" y="15.760657442611375" font-family="Helvetica Neue, Helvetica, Arial, sans-serif">probably_knows</text></g><g class="relationship" transform="translate(145.57113167138118 287.91625719145327) rotate(460.1983254622678)"><path class="b-outline" fill="#A5ABB6" stroke="none" d="M 24.018736134675446,-6.953439040707552 L 24.277555179777966,-5.987513214418485 A 190.7940244808562 190.7940244808562 0 0 1 39.810669216626394,-9.46223792179768 L 39.633263172162195,-10.446375663878314 A 191.7940244808562 191.7940244808562 0 0 0 24.018736134675446,-6.953439040707552 Z M 103.31206842516534,-11.182432652150595 L 103.15745784176343,-10.194457162829053 A 190.7940244808562 190.7940244808562 0 0 1 118.76673899556873,-7.079704309829764 L 118.0574706097617,-4.164753477157852 L 125.68650233610437,-5.910569881725321 L 119.71243017664479,-10.96630542005898 L 119.00316179083775,-8.051354587387069 A 191.7940244808562 191.7940244808562 0 0 0 103.31206842516534,-11.182432652150595"/><text text-anchor="middle" pointer-events="none" font-size="8px" fill="#000000" x="71.44768146770038" y="-9.975884004199827" transform="rotate(180 71.44768146770038 -12.975884004199827)" font-family="Helvetica Neue, Helvetica, Arial, sans-serif">probably_knows</text></g><g class="relationship" transform="translate(282.48369811935174 340.79112227110284) rotate(273.1336137038637)"><path class="b-outline" fill="#A5ABB6" stroke="none" d="M 24.018736134675446,6.953439040707552 L 24.277555179777966,5.987513214418485 A 185.84133585817867 185.84133585817867 0 0 0 38.56251308448815,9.217709078537581 L 38.38056045792887,10.201016376226448 A 186.84133585817867 186.84133585817867 0 0 1 24.018736134675446,6.953439040707552 Z M 102.04770516323374,10.948955419896436 L 101.88890265435751,9.961645051686617 A 185.84133585817867 185.84133585817867 0 0 0 116.24580216884753,7.067923573943789 L 115.53763404738359,4.152705243913904 L 123.16600629249459,5.901401012199562 L 117.19002633079947,10.954881347316967 L 116.48185820933553,8.039663017287083 A 186.84133585817867 186.84133585817867 0 0 1 102.04770516323374,10.948955419896436"/><text text-anchor="middle" pointer-events="none" font-size="8px" fill="#000000" x="70.18791135649909" y="15.807046285289033" font-family="Helvetica Neue, Helvetica, Arial, sans-serif">probably_knows</text></g><g class="relationship" transform="translate(282.48369811935174 340.79112227110284) rotate(201.11628109632522)"><path class="b-outline" fill="#A5ABB6" stroke="none" d="M 24.018736134675446,6.953439040707552 L 24.277555179777966,5.987513214418485 A 184.48055475890493 184.48055475890493 0 0 0 38.21985408937725,9.149844016298601 L 38.036611025319566,10.132911653582397 A 185.48055475890493 185.48055475890493 0 0 1 24.018736134675446,6.953439040707552 Z M 101.700366502673,10.884180125548141 L 101.54037274840164,9.897062098869384 A 184.48055475890493 184.48055475890493 0 0 0 115.55341338078304,7.064620180601544 L 114.84555378167447,4.149326921262126 L 122.47374091909312,5.8988299925714385 L 116.49722617959448,10.951677859720768 L 115.7893665804859,8.03638460038135 A 185.48055475890493 185.48055475890493 0 0 1 101.700366502673,10.884180125548141"/><text text-anchor="middle" pointer-events="none" font-size="8px" fill="#000000" x="69.84191256860116" y="15.760657442611375" transform="rotate(180 69.84191256860116 12.760657442611375)" font-family="Helvetica Neue, Helvetica, Arial, sans-serif">probably_knows</text></g><g class="relationship" transform="translate(290.5445144922258 193.55211544474204) rotate(453.1336137038637)"><path class="b-outline" fill="#A5ABB6" stroke="none" d="M 24.018736134675446,6.953439040707552 L 24.277555179777966,5.987513214418485 A 185.84133585817867 185.84133585817867 0 0 0 38.56251308448815,9.217709078537581 L 38.38056045792887,10.201016376226448 A 186.84133585817867 186.84133585817867 0 0 1 24.018736134675446,6.953439040707552 Z M 102.04770516323374,10.948955419896436 L 101.88890265435751,9.961645051686617 A 185.84133585817867 185.84133585817867 0 0 0 116.24580216884753,7.067923573943789 L 115.53763404738359,4.152705243913904 L 123.16600629249459,5.901401012199562 L 117.19002633079947,10.954881347316967 L 116.48185820933553,8.039663017287083 A 186.84133585817867 186.84133585817867 0 0 1 102.04770516323374,10.948955419896436"/><text text-anchor="middle" pointer-events="none" font-size="8px" fill="#000000" x="70.18791135649909" y="15.807046285289033" transform="rotate(180 70.18791135649909 12.807046285289033)" font-family="Helvetica Neue, Helvetica, Arial, sans-serif">probably_knows</text></g><g class="relationship" transform="translate(290.5445144922258 193.55211544474204) rotate(373.4842589471992)"><path class="b-outline" fill="#A5ABB6" stroke="none" d="M 24.018736134675446,6.953439040707552 L 24.277555179777966,5.987513214418485 A 188.7242654054806 188.7242654054806 0 0 0 39.28886717544438,9.360509384155932 L 39.10958910491349,10.34430782561978 A 189.7242654054806 189.7242654054806 0 0 1 24.018736134675446,6.953439040707552 Z M 102.78364608532604,11.085285969999148 L 102.62731048596433,10.097581975691043 A 188.7242654054806 188.7242654054806 0 0 0 117.71305015714023,7.074826681955038 L 117.00423731759936,4.1597650430695055 L 124.63299612112995,5.906773662840598 L 118.65813394319473,10.961575533802415 L 117.94932110365386,8.046513894916883 A 189.7242654054806 189.7242654054806 0 0 1 102.78364608532604,11.085285969999148"/><text text-anchor="middle" pointer-events="none" font-size="8px" fill="#000000" x="70.92112630614454" y="15.905325456614236" font-family="Helvetica Neue, Helvetica, Arial, sans-serif">probably_knows</text></g><g class="relationship" transform="translate(435.36442233701894 228.2782219217497) rotate(193.48425894719918)"><path class="b-outline" fill="#A5ABB6" stroke="none" d="M 24.018736134675446,6.953439040707552 L 24.277555179777966,5.987513214418485 A 188.7242654054806 188.7242654054806 0 0 0 39.28886717544438,9.360509384155932 L 39.10958910491349,10.34430782561978 A 189.7242654054806 189.7242654054806 0 0 1 24.018736134675446,6.953439040707552 Z M 102.78364608532604,11.085285969999148 L 102.62731048596433,10.097581975691043 A 188.7242654054806 188.7242654054806 0 0 0 117.71305015714023,7.074826681955038 L 117.00423731759936,4.1597650430695055 L 124.63299612112995,5.906773662840598 L 118.65813394319473,10.961575533802415 L 117.94932110365386,8.046513894916883 A 189.7242654054806 189.7242654054806 0 0 1 102.78364608532604,11.085285969999148"/><text text-anchor="middle" pointer-events="none" font-size="8px" fill="#000000" x="70.92112630614454" y="15.905325456614236" transform="rotate(180 70.92112630614454 12.905325456614236)" font-family="Helvetica Neue, Helvetica, Arial, sans-serif">probably_knows</text></g><g class="relationship" transform="translate(435.36442233701894 228.2782219217497) rotate(266.253545099549)"><path class="b-outline" fill="#A5ABB6" stroke="none" d="M 24.018736134675446,6.953439040707552 L 24.277555179777966,5.987513214418485 A 178.3366765038307 178.3366765038307 0 0 0 36.674360894165694,8.83954519508336 L 36.485055344309465,9.821463424262163 A 179.3366765038307 179.3366765038307 0 0 1 24.018736134675446,6.953439040707552 Z M 100.13241486582656,10.588124551802679 L 99.96681610518523,9.601931340269516 A 178.3366765038307 178.3366765038307 0 0 0 112.42872301823517,7.049333755554964 L 111.7222911107513,4.133694209916873 L 119.3496206093047,5.886932562365606 L 113.37063222821367,10.936853149739086 L 112.66420032072979,8.021213604100994 A 179.3366765038307 179.3366765038307 0 0 1 100.13241486582656,10.588124551802679"/><text text-anchor="middle" pointer-events="none" font-size="8px" fill="#000000" x="68.28047139988868" y="15.551215555967985" transform="rotate(180 68.28047139988868 12.551215555967985)" font-family="Helvetica Neue, Helvetica, Arial, sans-serif">probably_knows</text></g><g class="relationship" transform="translate(425.9783530235357 84.93858250709421) rotate(446.253545099549)"><path class="b-outline" fill="#A5ABB6" stroke="none" d="M 24.018736134675446,6.953439040707552 L 24.277555179777966,5.987513214418485 A 178.3366765038307 178.3366765038307 0 0 0 36.674360894165694,8.83954519508336 L 36.485055344309465,9.821463424262163 A 179.3366765038307 179.3366765038307 0 0 1 24.018736134675446,6.953439040707552 Z M 100.13241486582656,10.588124551802679 L 99.96681610518523,9.601931340269516 A 178.3366765038307 178.3366765038307 0 0 0 112.42872301823517,7.049333755554964 L 111.7222911107513,4.133694209916873 L 119.3496206093047,5.886932562365606 L 113.37063222821367,10.936853149739086 L 112.66420032072979,8.021213604100994 A 179.3366765038307 179.3366765038307 0 0 1 100.13241486582656,10.588124551802679"/><text text-anchor="middle" pointer-events="none" font-size="8px" fill="#000000" x="68.28047139988868" y="15.551215555967985" font-family="Helvetica Neue, Helvetica, Arial, sans-serif">probably_knows</text></g><g class="relationship" transform="translate(425.9783530235357 84.93858250709421) rotate(274.03877827795264)"><path class="b-outline" fill="#A5ABB6" stroke="none" d="M 24.018736134675446,-6.953439040707552 L 24.277555179777966,-5.987513214418485 A 173.63223064423622 173.63223064423622 0 0 1 35.49284782755792,-8.597348166297081 L 35.29862101055825,-9.578304813431998 A 174.63223064423622 174.63223064423622 0 0 0 24.018736134675446,-6.953439040707552 Z M 98.93209465684583,-10.35716573965908 L 98.76193585378249,-9.37174908578109 A 173.63223064423622 173.63223064423622 0 0 1 110.03774675947693,-7.037200720375855 L 109.33244803768068,-4.1212868476710085 L 116.95909558275427,-5.877489348302082 L 110.97814505520526,-10.925085883982318 L 110.272846333409,-8.009172011277471 A 174.63223064423622 174.63223064423622 0 0 0 98.93209465684583,-10.35716573965908"/><text text-anchor="middle" pointer-events="none" font-size="8px" fill="#000000" x="67.08569944723187" y="-9.390845860591185" font-family="Helvetica Neue, Helvetica, Arial, sans-serif">probably_knows</text></g><g class="relationship" transform="translate(435.92740908569624 -55.96899570565201) rotate(266.58124666915944)"><path class="b-outline" fill="#A5ABB6" stroke="none" d="M 24.018736134675446,6.953439040707552 L 24.277555179777966,5.987513214418485 A 175.22833247618678 175.22833247618678 0 0 0 35.8935127372147,8.679989213737201 L 35.700984099566774,9.661280568883768 A 176.22833247618678 176.22833247618678 0 0 1 24.018736134675446,6.953439040707552 Z M 99.33930787976198,10.43596111665812 L 99.17072361980705,9.45027387047125 A 175.22833247618678 175.22833247618678 0 0 0 110.84878129617654,7.041360030073023 L 110.14309410768024,4.125540146748234 L 117.76997555535044,5.880726570802462 L 111.78969754750494,10.929119874506076 L 111.08401035900864,8.013299991181286 A 176.22833247618678 176.22833247618678 0 0 1 99.33930787976198,10.43596111665812"/><text text-anchor="middle" pointer-events="none" font-size="8px" fill="#000000" x="67.49097133854283" y="15.445255041965453" transform="rotate(180 67.49097133854283 12.445255041965453)" font-family="Helvetica Neue, Helvetica, Arial, sans-serif">probably_knows</text></g><g class="relationship" transform="translate(435.92740908569624 -55.96899570565201) rotate(454.03877827795264)"><path class="b-outline" fill="#A5ABB6" stroke="none" d="M 24.018736134675446,-6.953439040707552 L 24.277555179777966,-5.987513214418485 A 173.63223064423622 173.63223064423622 0 0 1 35.49284782755792,-8.597348166297081 L 35.29862101055825,-9.578304813431998 A 174.63223064423622 174.63223064423622 0 0 0 24.018736134675446,-6.953439040707552 Z M 98.93209465684583,-10.35716573965908 L 98.76193585378249,-9.37174908578109 A 173.63223064423622 173.63223064423622 0 0 1 110.03774675947693,-7.037200720375855 L 109.33244803768068,-4.1212868476710085 L 116.95909558275427,-5.877489348302082 L 110.97814505520526,-10.925085883982318 L 110.272846333409,-8.009172011277471 A 174.63223064423622 174.63223064423622 0 0 0 98.93209465684583,-10.35716573965908"/><text text-anchor="middle" pointer-events="none" font-size="8px" fill="#000000" x="67.08569944723187" y="-9.390845860591185" transform="rotate(180 67.08569944723187 -12.390845860591185)" font-family="Helvetica Neue, Helvetica, Arial, sans-serif">probably_knows</text></g><g class="relationship" transform="translate(427.45542530033885 -197.78463998052513) rotate(525.8101399494896)"><path class="b-outline" fill="#A5ABB6" stroke="none" d="M 24.018736134675446,6.953439040707552 L 24.277555179777966,5.987513214418485 A 191.72364178796042 191.72364178796042 0 0 0 40.04511896745733,9.507719250061797 L 39.86854102543753,10.492005910741511 A 192.72364178796042 192.72364178796042 0 0 1 24.018736134675446,6.953439040707552 Z M 103.54942313188015,11.225873006926747 L 103.39557517744191,10.237778473536764 A 191.72364178796042 191.72364178796042 0 0 0 119.24007536377192,7.081874137644606 L 118.53060432717956,4.166972621600445 L 126.15975740730703,5.9122586382697655 L 120.18603674589508,10.968409492370153 L 119.47656570930272,8.053507976325992 A 192.72364178796042 192.72364178796042 0 0 1 103.54942313188015,11.225873006926747"/><text text-anchor="middle" pointer-events="none" font-size="8px" fill="#000000" x="71.68422091256937" y="16.007574963488622" transform="rotate(180 71.68422091256937 13.007574963488622)" font-family="Helvetica Neue, Helvetica, Arial, sans-serif">probably_knows</text></g><g class="relationship" transform="translate(427.45542530033885 -197.78463998052513) rotate(446.58124666915944)"><path class="b-outline" fill="#A5ABB6" stroke="none" d="M 24.018736134675446,6.953439040707552 L 24.277555179777966,5.987513214418485 A 175.22833247618678 175.22833247618678 0 0 0 35.8935127372147,8.679989213737201 L 35.700984099566774,9.661280568883768 A 176.22833247618678 176.22833247618678 0 0 1 24.018736134675446,6.953439040707552 Z M 99.33930787976198,10.43596111665812 L 99.17072361980705,9.45027387047125 A 175.22833247618678 175.22833247618678 0 0 0 110.84878129617654,7.041360030073023 L 110.14309410768024,4.125540146748234 L 117.76997555535044,5.880726570802462 L 111.78969754750494,10.929119874506076 L 111.08401035900864,8.013299991181286 A 176.22833247618678 176.22833247618678 0 0 1 99.33930787976198,10.43596111665812"/><text text-anchor="middle" pointer-events="none" font-size="8px" fill="#000000" x="67.49097133854283" y="15.445255041965453" font-family="Helvetica Neue, Helvetica, Arial, sans-serif">probably_knows</text></g><g class="relationship" transform="translate(281.5952581823087 -160.90380886185582) rotate(283.6962334552806)"><path class="b-outline" fill="#A5ABB6" stroke="none" d="M 24.018736134675446,-6.953439040707552 L 24.277555179777966,-5.987513214418485 A 188.57444218101043 188.57444218101043 0 0 1 39.251106035625014,-9.353120216690428 L 39.07169091548001,-10.336893673672932 A 189.57444218101043 189.57444218101043 0 0 0 24.018736134675446,-6.953439040707552 Z M 102.74539737267358,-11.078230501182219 L 102.58893543194137,-10.09054651270094 A 188.57444218101043 188.57444218101043 0 0 1 117.63678659900607,-7.074471085884065 L 116.92800697042152,-4.15940137177712 L 124.5567458700197,-5.906496904871271 L 118.58182610378547,-10.961230704693325 L 117.87304647520092,-8.04616099058638 A 189.57444218101043 189.57444218101043 0 0 0 102.74539737267358,-11.078230501182219"/><text text-anchor="middle" pointer-events="none" font-size="8px" fill="#000000" x="70.88301560741546" y="-9.900217961703703" font-family="Helvetica Neue, Helvetica, Arial, sans-serif">probably_knows</text></g><g class="relationship" transform="translate(281.5952581823087 -160.90380886185582) rotate(345.81013994948955)"><path class="b-outline" fill="#A5ABB6" stroke="none" d="M 24.018736134675446,6.953439040707552 L 24.277555179777966,5.987513214418485 A 191.72364178796042 191.72364178796042 0 0 0 40.04511896745733,9.507719250061797 L 39.86854102543753,10.492005910741511 A 192.72364178796042 192.72364178796042 0 0 1 24.018736134675446,6.953439040707552 Z M 103.54942313188015,11.225873006926747 L 103.39557517744191,10.237778473536764 A 191.72364178796042 191.72364178796042 0 0 0 119.24007536377192,7.081874137644606 L 118.53060432717956,4.166972621600445 L 126.15975740730703,5.9122586382697655 L 120.18603674589508,10.968409492370153 L 119.47656570930272,8.053507976325992 A 192.72364178796042 192.72364178796042 0 0 1 103.54942313188015,11.225873006926747"/><text text-anchor="middle" pointer-events="none" font-size="8px" fill="#000000" x="71.68422091256937" y="16.007574963488622" font-family="Helvetica Neue, Helvetica, Arial, sans-serif">probably_knows</text></g><g class="relationship" transform="translate(316.8388710374505 -305.5202346757371) rotate(217.7825040446602)"><path class="b-outline" fill="#A5ABB6" stroke="none" d="M 24.018736134675446,6.953439040707552 L 24.277555179777966,5.987513214418485 A 176.2752762200388 176.2752762200388 0 0 0 36.15643301691345,8.733931745948496 L 35.96500219602399,9.715437854341928 A 177.2752762200388 177.2752762200388 0 0 1 24.018736134675446,6.953439040707552 Z M 99.60642857349558,10.487399501353309 L 99.4388616382711,9.501538800128515 A 176.2752762200388 176.2752762200388 0 0 0 111.38086197495552,7.044064206455117 L 110.6749222251812,4.128305459629759 L 118.30195567584374,5.882831248119278 L 112.3221149746546,10.931742535555593 L 111.61617522488028,8.015983788730235 A 177.2752762200388 177.2752762200388 0 0 1 99.60642857349558,10.487399501353309"/><text text-anchor="middle" pointer-events="none" font-size="8px" fill="#000000" x="67.75685207068298" y="15.480944247466567" transform="rotate(180 67.75685207068298 12.480944247466567)" font-family="Helvetica Neue, Helvetica, Arial, sans-serif">probably_knows</text></g><g class="relationship" transform="translate(316.8388710374505 -305.5202346757371) rotate(463.6962334552806)"><path class="b-outline" fill="#A5ABB6" stroke="none" d="M 24.018736134675446,-6.953439040707552 L 24.277555179777966,-5.987513214418485 A 188.57444218101043 188.57444218101043 0 0 1 39.251106035625014,-9.353120216690428 L 39.07169091548001,-10.336893673672932 A 189.57444218101043 189.57444218101043 0 0 0 24.018736134675446,-6.953439040707552 Z M 102.74539737267358,-11.078230501182219 L 102.58893543194137,-10.09054651270094 A 188.57444218101043 188.57444218101043 0 0 1 117.63678659900607,-7.074471085884065 L 116.92800697042152,-4.15940137177712 L 124.5567458700197,-5.906496904871271 L 118.58182610378547,-10.961230704693325 L 117.87304647520092,-8.04616099058638 A 189.57444218101043 189.57444218101043 0 0 0 102.74539737267358,-11.078230501182219"/><text text-anchor="middle" pointer-events="none" font-size="8px" fill="#000000" x="70.88301560741546" y="-9.900217961703703" transform="rotate(180 70.88301560741546 -12.900217961703703)" font-family="Helvetica Neue, Helvetica, Arial, sans-serif">probably_knows</text></g><g class="relationship" transform="translate(204.1361260034806 -392.88633589459204) rotate(397.7825040446602)"><path class="b-outline" fill="#A5ABB6" stroke="none" d="M 24.018736134675446,6.953439040707552 L 24.277555179777966,5.987513214418485 A 176.2752762200388 176.2752762200388 0 0 0 36.15643301691345,8.733931745948496 L 35.96500219602399,9.715437854341928 A 177.2752762200388 177.2752762200388 0 0 1 24.018736134675446,6.953439040707552 Z M 99.60642857349558,10.487399501353309 L 99.4388616382711,9.501538800128515 A 176.2752762200388 176.2752762200388 0 0 0 111.38086197495552,7.044064206455117 L 110.6749222251812,4.128305459629759 L 118.30195567584374,5.882831248119278 L 112.3221149746546,10.931742535555593 L 111.61617522488028,8.015983788730235 A 177.2752762200388 177.2752762200388 0 0 1 99.60642857349558,10.487399501353309"/><text text-anchor="middle" pointer-events="none" font-size="8px" fill="#000000" x="67.75685207068298" y="15.480944247466567" font-family="Helvetica Neue, Helvetica, Arial, sans-serif">probably_knows</text></g><g class="relationship" transform="translate(204.1361260034806 -392.88633589459204) rotate(497.5742281070935)"><path class="b-outline" fill="#A5ABB6" stroke="none" d="M 24.018736134675446,6.953439040707552 L 24.277555179777966,5.987513214418485 A 188.49189790904583 188.49189790904583 0 0 0 39.230302354745184,9.349047715783655 L 39.05081163802621,10.332807382883146 A 189.49189790904583 189.49189790904583 0 0 1 24.018736134675446,6.953439040707552 Z M 102.72432457682957,11.074341967494945 L 102.56779294303429,10.086669021818409 A 188.49189790904583 188.49189790904583 0 0 0 117.59477017383642,7.074275025789846 L 116.88600885632081,4.159200859530342 L 124.5147367813612,5.9063443126300195 L 118.53978526385723,10.961040580802518 L 117.83102394634162,8.045966414543013 A 189.49189790904583 189.49189790904583 0 0 1 102.72432457682957,11.074341967494945"/><text text-anchor="middle" pointer-events="none" font-size="8px" fill="#000000" x="70.86201901716652" y="15.897404016518664" transform="rotate(180 70.86201901716652 12.897404016518664)" font-family="Helvetica Neue, Helvetica, Arial, sans-serif">probably_knows</text></g><g class="relationship" transform="translate(94.29393115926173 -292.49598835279517) rotate(252.37311638501723)"><path class="b-outline" fill="#A5ABB6" stroke="none" d="M 24.018736134675446,6.953439040707552 L 24.277555179777966,5.987513214418485 A 189.9426423829338 189.9426423829338 0 0 0 39.59599696650942,9.420471112366329 L 39.417825645343726,10.404470594233118 A 190.9426423829338 190.9426423829338 0 0 1 24.018736134675446,6.953439040707552 Z M 103.09469875826927,11.142544236477505 L 102.93938316253548,10.154679333911446 A 189.9426423829338 189.9426423829338 0 0 0 118.33328105444123,7.077705756491719 L 117.62419932346764,4.162709513132305 L 125.25311924410879,5.909014424779912 L 119.27872336240601,10.96436741430427 L 118.56964163143242,8.049371170944857 A 190.9426423829338 190.9426423829338 0 0 1 103.09469875826927,11.142544236477505"/><text text-anchor="middle" pointer-events="none" font-size="8px" fill="#000000" x="71.23107104057472" y="15.946860161627399" transform="rotate(180 71.23107104057472 12.946860161627399)" font-family="Helvetica Neue, Helvetica, Arial, sans-serif">probably_knows</text></g><g class="relationship" transform="translate(94.29393115926173 -292.49598835279517) rotate(317.5742281070935)"><path class="b-outline" fill="#A5ABB6" stroke="none" d="M 24.018736134675446,6.953439040707552 L 24.277555179777966,5.987513214418485 A 188.49189790904583 188.49189790904583 0 0 0 39.230302354745184,9.349047715783655 L 39.05081163802621,10.332807382883146 A 189.49189790904583 189.49189790904583 0 0 1 24.018736134675446,6.953439040707552 Z M 102.72432457682957,11.074341967494945 L 102.56779294303429,10.086669021818409 A 188.49189790904583 188.49189790904583 0 0 0 117.59477017383642,7.074275025789846 L 116.88600885632081,4.159200859530342 L 124.5147367813612,5.9063443126300195 L 118.53978526385723,10.961040580802518 L 117.83102394634162,8.045966414543013 A 189.49189790904583 189.49189790904583 0 0 1 102.72432457682957,11.074341967494945"/><text text-anchor="middle" pointer-events="none" font-size="8px" fill="#000000" x="70.86201901716652" y="15.897404016518664" font-family="Helvetica Neue, Helvetica, Arial, sans-serif">probably_knows</text></g><g class="relationship" transform="translate(49.0092219874537 -435.0194206200024) rotate(539.7710829232085)"><path class="b-outline" fill="#A5ABB6" stroke="none" d="M 24.018736134675446,-6.953439040707552 L 24.277555179777966,-5.987513214418485 A 179.1722218753057 179.1722218753057 0 0 1 36.88438299940265,-8.882132368052709 L 36.69592546284021,-9.86421370730767 A 180.1722218753057 180.1722218753057 0 0 0 24.018736134675446,-6.953439040707552 Z M 100.3456254875478,-10.628746139390415 L 100.18081158547108,-9.642421457714931 A 179.1722218753057 179.1722218753057 0 0 1 112.85352993643508,-7.051449185499576 L 112.14690045547628,-4.13585751713449 L 119.77434874278008,-5.888579007989913 L 113.79570257771347,-10.938904743319691 L 113.08907309675467,-8.023313074954604 A 180.1722218753057 180.1722218753057 0 0 0 100.3456254875478,-10.628746139390415"/><text text-anchor="middle" pointer-events="none" font-size="8px" fill="#000000" x="68.49274986920359" y="-9.579698684836131" transform="rotate(180 68.49274986920359 -12.579698684836131)" font-family="Helvetica Neue, Helvetica, Arial, sans-serif">probably_knows</text></g><g class="relationship" transform="translate(49.0092219874537 -435.0194206200024) rotate(432.3731163850172)"><path class="b-outline" fill="#A5ABB6" stroke="none" d="M 24.018736134675446,6.953439040707552 L 24.277555179777966,5.987513214418485 A 189.9426423829338 189.9426423829338 0 0 0 39.59599696650942,9.420471112366329 L 39.417825645343726,10.404470594233118 A 190.9426423829338 190.9426423829338 0 0 1 24.018736134675446,6.953439040707552 Z M 103.09469875826927,11.142544236477505 L 102.93938316253548,10.154679333911446 A 189.9426423829338 189.9426423829338 0 0 0 118.33328105444123,7.077705756491719 L 117.62419932346764,4.162709513132305 L 125.25311924410879,5.909014424779912 L 119.27872336240601,10.96436741430427 L 118.56964163143242,8.049371170944857 A 190.9426423829338 190.9426423829338 0 0 1 103.09469875826927,11.142544236477505"/><text text-anchor="middle" pointer-events="none" font-size="8px" fill="#000000" x="71.23107104057472" y="15.946860161627399" font-family="Helvetica Neue, Helvetica, Arial, sans-serif">probably_knows</text></g><g class="relationship" transform="translate(-95.06057409996694 -434.4438073315354) rotate(359.7710829232085)"><path class="b-outline" fill="#A5ABB6" stroke="none" d="M 24.018736134675446,-6.953439040707552 L 24.277555179777966,-5.987513214418485 A 179.1722218753057 179.1722218753057 0 0 1 36.88438299940265,-8.882132368052709 L 36.69592546284021,-9.86421370730767 A 180.1722218753057 180.1722218753057 0 0 0 24.018736134675446,-6.953439040707552 Z M 100.3456254875478,-10.628746139390415 L 100.18081158547108,-9.642421457714931 A 179.1722218753057 179.1722218753057 0 0 1 112.85352993643508,-7.051449185499576 L 112.14690045547628,-4.13585751713449 L 119.77434874278008,-5.888579007989913 L 113.79570257771347,-10.938904743319691 L 113.08907309675467,-8.023313074954604 A 180.1722218753057 180.1722218753057 0 0 0 100.3456254875478,-10.628746139390415"/><text text-anchor="middle" pointer-events="none" font-size="8px" fill="#000000" x="68.49274986920359" y="-9.579698684836131" font-family="Helvetica Neue, Helvetica, Arial, sans-serif">probably_knows</text></g><g class="relationship" transform="translate(-95.06057409996694 -434.4438073315354) rotate(456.72433450720797)"><path class="b-outline" fill="#A5ABB6" stroke="none" d="M 24.018736134675446,-6.953439040707552 L 24.277555179777966,-5.987513214418485 A 190.82263839153518 190.82263839153518 0 0 1 39.817884864947715,-9.463639766092683 L 39.64050442595693,-10.447782123611887 A 191.82263839153518 191.82263839153518 0 0 0 24.018736134675446,-6.953439040707552 Z M 103.31937411314765,-11.183771518752877 L 103.16478711481639,-10.195792338837151 A 190.82263839153518 190.82263839153518 0 0 1 118.78130770521128,-7.0797712900001475 L 118.0720330637965,-4.16482197945529 L 125.70106853671841,-5.910622011789812 L 119.72700722709764,-10.966370370726624 L 119.01773258568286,-8.051421060181767 A 191.82263839153518 191.82263839153518 0 0 0 103.31937411314765,-11.183771518752877"/><text text-anchor="middle" pointer-events="none" font-size="8px" fill="#000000" x="71.4549618490565" y="-9.976859460924146" transform="rotate(180 71.4549618490565 -12.976859460924146)" font-family="Helvetica Neue, Helvetica, Arial, sans-serif">probably_knows</text></g><g class="relationship" transform="translate(-112.6235554791498 -285.4832904770839) rotate(276.72433450720797)"><path class="b-outline" fill="#A5ABB6" stroke="none" d="M 24.018736134675446,-6.953439040707552 L 24.277555179777966,-5.987513214418485 A 190.82263839153518 190.82263839153518 0 0 1 39.817884864947715,-9.463639766092683 L 39.64050442595693,-10.447782123611887 A 191.82263839153518 191.82263839153518 0 0 0 24.018736134675446,-6.953439040707552 Z M 103.31937411314765,-11.183771518752877 L 103.16478711481639,-10.195792338837151 A 190.82263839153518 190.82263839153518 0 0 1 118.78130770521128,-7.0797712900001475 L 118.0720330637965,-4.16482197945529 L 125.70106853671841,-5.910622011789812 L 119.72700722709764,-10.966370370726624 L 119.01773258568286,-8.051421060181767 A 191.82263839153518 191.82263839153518 0 0 0 103.31937411314765,-11.183771518752877"/><text text-anchor="middle" pointer-events="none" font-size="8px" fill="#000000" x="71.4549618490565" y="-9.976859460924146" font-family="Helvetica Neue, Helvetica, Arial, sans-serif">probably_knows</text></g><g class="relationship" transform="translate(-112.6235554791498 -285.4832904770839) rotate(210.79679829436117)"><path class="b-outline" fill="#A5ABB6" stroke="none" d="M 24.018736134675446,-6.953439040707552 L 24.277555179777966,-5.987513214418485 A 187.49306577083377 187.49306577083377 0 0 1 38.97860062034465,-9.299684281800324 L 38.79819005067095,-10.283275673766525 A 188.49306577083377 188.49306577083377 0 0 0 24.018736134675446,-6.953439040707552 Z M 102.46933859981363,-11.02721129108562 L 102.3119587670194,-10.039673145883285 A 187.49306577083377 187.49306577083377 0 0 1 117.08637933138533,-7.07189431105593 L 116.3778403613162,-4.156766092967849 L 124.0064350019357,-5.9044914172426655 L 118.03109795814416,-10.958731935173372 L 117.32255898807503,-8.04360371708529 A 188.49306577083377 188.49306577083377 0 0 0 102.46933859981363,-11.02721129108562"/><text text-anchor="middle" pointer-events="none" font-size="8px" fill="#000000" x="70.60796469851756" y="-9.863353737480196" transform="rotate(180 70.60796469851756 -12.863353737480196)" font-family="Helvetica Neue, Helvetica, Arial, sans-serif">probably_knows</text></g><g class="relationship" transform="translate(-240.0108384901954 -361.4117040982987) rotate(390.79679829436117)"><path class="b-outline" fill="#A5ABB6" stroke="none" d="M 24.018736134675446,-6.953439040707552 L 24.277555179777966,-5.987513214418485 A 187.49306577083377 187.49306577083377 0 0 1 38.97860062034465,-9.299684281800324 L 38.79819005067095,-10.283275673766525 A 188.49306577083377 188.49306577083377 0 0 0 24.018736134675446,-6.953439040707552 Z M 102.46933859981363,-11.02721129108562 L 102.3119587670194,-10.039673145883285 A 187.49306577083377 187.49306577083377 0 0 1 117.08637933138533,-7.07189431105593 L 116.3778403613162,-4.156766092967849 L 124.0064350019357,-5.9044914172426655 L 118.03109795814416,-10.958731935173372 L 117.32255898807503,-8.04360371708529 A 188.49306577083377 188.49306577083377 0 0 0 102.46933859981363,-11.02721129108562"/><text text-anchor="middle" pointer-events="none" font-size="8px" fill="#000000" x="70.60796469851756" y="-9.863353737480196" font-family="Helvetica Neue, Helvetica, Arial, sans-serif">probably_knows</text></g><g class="relationship" transform="translate(-240.0108384901954 -361.4117040982987) rotate(501.9124393987676)"><path class="b-outline" fill="#A5ABB6" stroke="none" d="M 24.018736134675446,6.953439040707552 L 24.277555179777966,5.987513214418485 A 178.10947211011487 178.10947211011487 0 0 0 36.61725993311889,8.8279429135263 L 36.42772246303396,9.80981640203376 A 179.10947211011487 179.10947211011487 0 0 1 24.018736134675446,6.953439040707552 Z M 100.07443921749831,10.577058332304915 L 99.9086257616683,9.590901195807021 A 178.10947211011487 178.10947211011487 0 0 0 112.31321582231827,7.048756490558702 L 111.6068378293271,4.1331038824762905 L 119.23413490667576,5.886483274926384 L 113.2550531463065,10.936293301335251 L 112.54867515331533,8.02064069325284 A 179.10947211011487 179.10947211011487 0 0 1 100.07443921749831,10.577058332304915"/><text text-anchor="middle" pointer-events="none" font-size="8px" fill="#000000" x="68.22275190321835" y="15.543470337341319" transform="rotate(180 68.22275190321835 12.543470337341319)" font-family="Helvetica Neue, Helvetica, Arial, sans-serif">probably_knows</text></g><g class="relationship" transform="translate(-352.9798232868333 -272.87230426692787) rotate(415.280326798335)"><path class="b-outline" fill="#A5ABB6" stroke="none" d="M 24.018736134675446,6.953439040707552 L 24.277555179777966,5.987513214418485 A 191.4781464105306 191.4781464105306 0 0 0 39.983199845532965,9.495720873892338 L 39.806403971012436,10.479968413260622 A 192.4781464105306 192.4781464105306 0 0 1 24.018736134675446,6.953439040707552 Z M 103.48674091082532,11.21441260136072 L 103.33269228103525,10.226349334327779 A 191.4781464105306 191.4781464105306 0 0 0 119.1150709030178,7.0813023742123065 L 118.40565326617396,4.16638786148043 L 126.03477437219948,5.911813640365331 L 120.06096108547625,10.967855057854807 L 119.35154344863241,8.052940545122931 A 192.4781464105306 192.4781464105306 0 0 1 103.48674091082532,11.21441260136072"/><text text-anchor="middle" pointer-events="none" font-size="8px" fill="#000000" x="71.62175260950808" y="15.999205939711885" font-family="Helvetica Neue, Helvetica, Arial, sans-serif">probably_knows</text></g><g class="relationship" transform="translate(-352.9798232868333 -272.87230426692787) rotate(321.9124393987676)"><path class="b-outline" fill="#A5ABB6" stroke="none" d="M 24.018736134675446,6.953439040707552 L 24.277555179777966,5.987513214418485 A 178.10947211011487 178.10947211011487 0 0 0 36.61725993311889,8.8279429135263 L 36.42772246303396,9.80981640203376 A 179.10947211011487 179.10947211011487 0 0 1 24.018736134675446,6.953439040707552 Z M 100.07443921749831,10.577058332304915 L 99.9086257616683,9.590901195807021 A 178.10947211011487 178.10947211011487 0 0 0 112.31321582231827,7.048756490558702 L 111.6068378293271,4.1331038824762905 L 119.23413490667576,5.886483274926384 L 113.2550531463065,10.936293301335251 L 112.54867515331533,8.02064069325284 A 179.10947211011487 179.10947211011487 0 0 1 100.07443921749831,10.577058332304915"/><text text-anchor="middle" pointer-events="none" font-size="8px" fill="#000000" x="68.22275190321835" y="15.543470337341319" font-family="Helvetica Neue, Helvetica, Arial, sans-serif">probably_knows</text></g><g class="relationship" transform="translate(-267.3600332479614 -149.3122935582071) rotate(531.7875300410187)"><path class="b-outline" fill="#A5ABB6" stroke="none" d="M 24.018736134675446,-6.953439040707552 L 24.277555179777966,-5.987513214418485 A 189.18837690134606 189.18837690134606 0 0 1 39.40584990528202,-9.383377099191335 L 39.22699504705654,-10.367252568795664 A 190.18837690134606 190.18837690134606 0 0 0 24.018736134675446,-6.953439040707552 Z M 102.90213194759947,-11.107121725155821 L 102.74618644663384,-10.119356064318907 A 189.18837690134606 189.18837690134606 0 0 1 117.94930213327928,-7.075926051308297 L 117.24038661798768,-4.160889380496272 L 124.86920695105593,-5.907629294096591 L 118.89452282033473,-10.962641612390998 L 118.18560730504313,-8.047604941578973 A 190.18837690134606 190.18837690134606 0 0 0 102.90213194759947,-11.107121725155821"/><text text-anchor="middle" pointer-events="none" font-size="8px" fill="#000000" x="71.03918711524231" y="-9.921147093753575" transform="rotate(180 71.03918711524231 -12.921147093753575)" font-family="Helvetica Neue, Helvetica, Arial, sans-serif">probably_knows</text></g><g class="relationship" transform="translate(-267.3600332479614 -149.3122935582071) rotate(235.280326798335)"><path class="b-outline" fill="#A5ABB6" stroke="none" d="M 24.018736134675446,6.953439040707552 L 24.277555179777966,5.987513214418485 A 191.4781464105306 191.4781464105306 0 0 0 39.983199845532965,9.495720873892338 L 39.806403971012436,10.479968413260622 A 192.4781464105306 192.4781464105306 0 0 1 24.018736134675446,6.953439040707552 Z M 103.48674091082532,11.21441260136072 L 103.33269228103525,10.226349334327779 A 191.4781464105306 191.4781464105306 0 0 0 119.1150709030178,7.0813023742123065 L 118.40565326617396,4.16638786148043 L 126.03477437219948,5.911813640365331 L 120.06096108547625,10.967855057854807 L 119.35154344863241,8.052940545122931 A 192.4781464105306 192.4781464105306 0 0 1 103.48674091082532,11.21441260136072"/><text text-anchor="middle" pointer-events="none" font-size="8px" fill="#000000" x="71.62175260950808" y="15.999205939711885" transform="rotate(180 71.62175260950808 12.999205939711885)" font-family="Helvetica Neue, Helvetica, Arial, sans-serif">probably_knows</text></g><g class="relationship" transform="translate(-414.9915892405856 -128.0054623094057) rotate(466.06870171420564)"><path class="b-outline" fill="#A5ABB6" stroke="none" d="M 24.018736134675446,-6.953439040707552 L 24.277555179777966,-5.987513214418485 A 178.89618495671536 178.89618495671536 0 0 1 36.81499283287252,-8.868076860000372 L 36.626255984638135,-9.850104559262746 A 179.89618495671536 179.89618495671536 0 0 0 24.018736134675446,-6.953439040707552 Z M 100.27518680706031,-10.615338991753703 L 100.11011442450008,-9.629057536733939 A 178.89618495671536 178.89618495671536 0 0 1 112.71318263735452,-7.050751611592622 L 112.00661830724111,-4.135144153889959 L 119.63402742701297,-5.888036084278437 L 113.65526841083907,-10.93822822186284 L 112.94870408072566,-8.022620764160177 A 179.89618495671536 179.89618495671536 0 0 0 100.27518680706031,-10.615338991753703"/><text text-anchor="middle" pointer-events="none" font-size="8px" fill="#000000" x="68.42261743970106" y="-9.570288780809108" transform="rotate(180 68.42261743970106 -12.570288780809108)" font-family="Helvetica Neue, Helvetica, Arial, sans-serif">probably_knows</text></g><g class="relationship" transform="translate(-414.9915892405856 -128.0054623094057) rotate(351.7875300410187)"><path class="b-outline" fill="#A5ABB6" stroke="none" d="M 24.018736134675446,-6.953439040707552 L 24.277555179777966,-5.987513214418485 A 189.18837690134606 189.18837690134606 0 0 1 39.40584990528202,-9.383377099191335 L 39.22699504705654,-10.367252568795664 A 190.18837690134606 190.18837690134606 0 0 0 24.018736134675446,-6.953439040707552 Z M 102.90213194759947,-11.107121725155821 L 102.74618644663384,-10.119356064318907 A 189.18837690134606 189.18837690134606 0 0 1 117.94930213327928,-7.075926051308297 L 117.24038661798768,-4.160889380496272 L 124.86920695105593,-5.907629294096591 L 118.89452282033473,-10.962641612390998 L 118.18560730504313,-8.047604941578973 A 190.18837690134606 190.18837690134606 0 0 0 102.90213194759947,-11.107121725155821"/><text text-anchor="middle" pointer-events="none" font-size="8px" fill="#000000" x="71.03918711524231" y="-9.921147093753575" font-family="Helvetica Neue, Helvetica, Arial, sans-serif">probably_knows</text></g><g class="relationship" transform="translate(-454.8301513831308 10.301990702277028) rotate(381.258507455443)"><path class="b-outline" fill="#A5ABB6" stroke="none" d="M 24.018736134675446,-6.953439040707552 L 24.277555179777966,-5.987513214418485 A 188.6139066980679 188.6139066980679 0 0 1 39.26105245378596,-9.355066912545738 L 39.08167345388643,-10.338846956252183 A 189.6139066980679 189.6139066980679 0 0 0 24.018736134675446,-6.953439040707552 Z M 102.75547233206905,-11.080089271665742 L 102.59904369007671,-10.092400008808028 A 188.6139066980679 188.6139066980679 0 0 1 117.65687484320281,-7.074564785685368 L 116.94808646350857,-4.1594971993659 L 124.57683060789728,-5.906569830785376 L 118.60192601612847,-10.961321567444658 L 117.89313763643423,-8.04625398112519 A 189.6139066980679 189.6139066980679 0 0 0 102.75547233206905,-11.080089271665742"/><text text-anchor="middle" pointer-events="none" font-size="8px" fill="#000000" x="70.89305417493033" y="-9.90156331250813" font-family="Helvetica Neue, Helvetica, Arial, sans-serif">probably_knows</text></g><g class="relationship" transform="translate(-454.8301513831308 10.301990702277028) rotate(286.06870171420564)"><path class="b-outline" fill="#A5ABB6" stroke="none" d="M 24.018736134675446,-6.953439040707552 L 24.277555179777966,-5.987513214418485 A 178.89618495671536 178.89618495671536 0 0 1 36.81499283287252,-8.868076860000372 L 36.626255984638135,-9.850104559262746 A 179.89618495671536 179.89618495671536 0 0 0 24.018736134675446,-6.953439040707552 Z M 100.27518680706031,-10.615338991753703 L 100.11011442450008,-9.629057536733939 A 178.89618495671536 178.89618495671536 0 0 1 112.71318263735452,-7.050751611592622 L 112.00661830724111,-4.135144153889959 L 119.63402742701297,-5.888036084278437 L 113.65526841083907,-10.93822822186284 L 112.94870408072566,-8.022620764160177 A 179.89618495671536 179.89618495671536 0 0 0 100.27518680706031,-10.615338991753703"/><text text-anchor="middle" pointer-events="none" font-size="8px" fill="#000000" x="68.42261743970106" y="-9.570288780809108" font-family="Helvetica Neue, Helvetica, Arial, sans-serif">probably_knows</text></g><g class="relationship" transform="translate(-316.09102856597565 64.27840195997996) rotate(201.258507455443)"><path class="b-outline" fill="#A5ABB6" stroke="none" d="M 24.018736134675446,-6.953439040707552 L 24.277555179777966,-5.987513214418485 A 188.6139066980679 188.6139066980679 0 0 1 39.26105245378596,-9.355066912545738 L 39.08167345388643,-10.338846956252183 A 189.6139066980679 189.6139066980679 0 0 0 24.018736134675446,-6.953439040707552 Z M 102.75547233206905,-11.080089271665742 L 102.59904369007671,-10.092400008808028 A 188.6139066980679 188.6139066980679 0 0 1 117.65687484320281,-7.074564785685368 L 116.94808646350857,-4.1594971993659 L 124.57683060789728,-5.906569830785376 L 118.60192601612847,-10.961321567444658 L 117.89313763643423,-8.04625398112519 A 189.6139066980679 189.6139066980679 0 0 0 102.75547233206905,-11.080089271665742"/><text text-anchor="middle" pointer-events="none" font-size="8px" fill="#000000" x="70.89305417493033" y="-9.90156331250813" transform="rotate(180 70.89305417493033 -12.90156331250813)" font-family="Helvetica Neue, Helvetica, Arial, sans-serif">probably_knows</text></g><g class="relationship" transform="translate(-316.09102856597565 64.27840195997996) rotate(492.06001660937255)"><path class="b-outline" fill="#A5ABB6" stroke="none" d="M 24.018736134675446,6.953439040707552 L 24.277555179777966,5.987513214418485 A 189.73273673336087 189.73273673336087 0 0 0 39.543077089089046,9.410156845966412 L 39.36471607232754,10.394121961049166 A 190.73273673336087 190.73273673336087 0 0 1 24.018736134675446,6.953439040707552 Z M 103.04110833899068,11.132694437408361 L 102.88561795007723,10.144857032287689 A 189.73273673336087 189.73273673336087 0 0 0 118.22641970620305,7.0772113435749695 L 117.51738415094047,4.162203868220319 L 125.14627640790766,5.908629627188078 L 119.17180044655314,10.963887977381171 L 118.46276489129056,8.04888050202652 A 190.73273673336087 190.73273673336087 0 0 1 103.04110833899068,11.132694437408361"/><text text-anchor="middle" pointer-events="none" font-size="8px" fill="#000000" x="71.17766968736844" y="15.939704430031242" transform="rotate(180 71.17766968736844 12.939704430031242)" font-family="Helvetica Neue, Helvetica, Arial, sans-serif">probably_knows</text></g><g class="relationship" transform="translate(-416.2008445868395 175.22767949252068) rotate(405.81755649783247)"><path class="b-outline" fill="#A5ABB6" stroke="none" d="M 24.018736134675446,-6.953439040707552 L 24.277555179777966,-5.987513214418485 A 178.26756641559555 178.26756641559555 0 0 1 36.65699175291303,-8.83601705390251 L 36.46761571879701,-9.817921691686877 A 179.26756641559555 179.26756641559555 0 0 0 24.018736134675446,-6.953439040707552 Z M 100.11478001452701,-10.584759396443104 L 99.94911600671946,-9.598577143247923 A 178.26756641559555 178.26756641559555 0 0 1 112.39358816657368,-7.049158257610917 L 111.68717264997039,-4.133514740666139 L 119.31449229221204,-5.886795971694051 L 113.33547552204473,-10.936682946870622 L 112.62906000544145,-8.021039429925843 A 179.26756641559555 179.26756641559555 0 0 0 100.11478001452701,-10.584759396443104"/><text text-anchor="middle" pointer-events="none" font-size="8px" fill="#000000" x="68.26291434169005" y="-9.548859646983516" font-family="Helvetica Neue, Helvetica, Arial, sans-serif">probably_knows</text></g><g class="relationship" transform="translate(-416.2008445868395 175.22767949252068) rotate(312.06001660937255)"><path class="b-outline" fill="#A5ABB6" stroke="none" d="M 24.018736134675446,6.953439040707552 L 24.277555179777966,5.987513214418485 A 189.73273673336087 189.73273673336087 0 0 0 39.543077089089046,9.410156845966412 L 39.36471607232754,10.394121961049166 A 190.73273673336087 190.73273673336087 0 0 1 24.018736134675446,6.953439040707552 Z M 103.04110833899068,11.132694437408361 L 102.88561795007723,10.144857032287689 A 189.73273673336087 189.73273673336087 0 0 0 118.22641970620305,7.0772113435749695 L 117.51738415094047,4.162203868220319 L 125.14627640790766,5.908629627188078 L 119.17180044655314,10.963887977381171 L 118.46276489129056,8.04888050202652 A 190.73273673336087 190.73273673336087 0 0 1 103.04110833899068,11.132694437408361"/><text text-anchor="middle" pointer-events="none" font-size="8px" fill="#000000" x="71.17766968736844" y="15.939704430031242" font-family="Helvetica Neue, Helvetica, Arial, sans-serif">probably_knows</text></g><g class="relationship" transform="translate(-316.1114558930694 278.2149768024276) rotate(338.93006711750024)"><path class="b-outline" fill="#A5ABB6" stroke="none" d="M 24.018736134675446,6.953439040707552 L 24.277555179777966,5.987513214418485 A 191.46387909658313 191.46387909658313 0 0 0 39.97960144001403,9.495023297722867 L 39.802792883439814,10.479268558987627 A 192.46387909658313 192.46387909658313 0 0 1 24.018736134675446,6.953439040707552 Z M 103.4830980677978,11.213746312467919 L 103.32903775961012,10.225684866280943 A 191.46387909658313 191.46387909658313 0 0 0 119.10780619520416,7.081269117851127 L 118.39839166433302,4.166353849204563 L 126.02751091052467,5.911787757259548 L 120.05369223636569,10.967822809379879 L 119.34427770549455,8.052907540733315 A 192.46387909658313 192.46387909658313 0 0 1 103.4830980677978,11.213746312467919"/><text text-anchor="middle" pointer-events="none" font-size="8px" fill="#000000" x="71.61812222888649" y="15.998719562086137" font-family="Helvetica Neue, Helvetica, Arial, sans-serif">probably_knows</text></g><g class="relationship" transform="translate(-316.1114558930694 278.2149768024276) rotate(225.81755649783247)"><path class="b-outline" fill="#A5ABB6" stroke="none" d="M 24.018736134675446,-6.953439040707552 L 24.277555179777966,-5.987513214418485 A 178.26756641559555 178.26756641559555 0 0 1 36.65699175291303,-8.83601705390251 L 36.46761571879701,-9.817921691686877 A 179.26756641559555 179.26756641559555 0 0 0 24.018736134675446,-6.953439040707552 Z M 100.11478001452701,-10.584759396443104 L 99.94911600671946,-9.598577143247923 A 178.26756641559555 178.26756641559555 0 0 1 112.39358816657368,-7.049158257610917 L 111.68717264997039,-4.133514740666139 L 119.31449229221204,-5.886795971694051 L 113.33547552204473,-10.936682946870622 L 112.62906000544145,-8.021039429925843 A 179.26756641559555 179.26756641559555 0 0 0 100.11478001452701,-10.584759396443104"/><text text-anchor="middle" pointer-events="none" font-size="8px" fill="#000000" x="68.26291434169005" y="-9.548859646983516" transform="rotate(180 68.26291434169005 -12.548859646983516)" font-family="Helvetica Neue, Helvetica, Arial, sans-serif">probably_knows</text></g><g class="relationship" transform="translate(-175.84292838144975 224.17440816569842) rotate(459.21256630220756)"><path class="b-outline" fill="#A5ABB6" stroke="none" d="M 24.018736134675446,6.953439040707552 L 24.277555179777966,5.987513214418485 A 188.2187188231101 188.2187188231101 0 0 0 39.16145596422156,9.335562313693913 L 38.98171460532108,10.319276217174291 A 189.2187188231101 189.2187188231101 0 0 1 24.018736134675446,6.953439040707552 Z M 102.65458506578081,11.061465999749771 L 102.49782234698492,10.073829705360112 A 188.2187188231101 188.2187188231101 0 0 0 117.45572024765228,7.073625424727192 L 116.74701959976224,4.158536508127865 L 124.37571116103238,5.9058387324169885 L 118.400654444839,10.960410646859629 L 117.69195379694897,8.045321730260302 A 189.2187188231101 189.2187188231101 0 0 1 102.65458506578081,11.061465999749771"/><text text-anchor="middle" pointer-events="none" font-size="8px" fill="#000000" x="70.7925325598427" y="15.88809130889544" transform="rotate(180 70.7925325598427 12.88809130889544)" font-family="Helvetica Neue, Helvetica, Arial, sans-serif">probably_knows</text></g><g class="relationship" transform="translate(-175.84292838144975 224.17440816569842) rotate(518.9300671175002)"><path class="b-outline" fill="#A5ABB6" stroke="none" d="M 24.018736134675446,6.953439040707552 L 24.277555179777966,5.987513214418485 A 191.46387909658313 191.46387909658313 0 0 0 39.97960144001403,9.495023297722867 L 39.802792883439814,10.479268558987627 A 192.46387909658313 192.46387909658313 0 0 1 24.018736134675446,6.953439040707552 Z M 103.4830980677978,11.213746312467919 L 103.32903775961012,10.225684866280943 A 191.46387909658313 191.46387909658313 0 0 0 119.10780619520416,7.081269117851127 L 118.39839166433302,4.166353849204563 L 126.02751091052467,5.911787757259548 L 120.05369223636569,10.967822809379879 L 119.34427770549455,8.052907540733315 A 192.46387909658313 192.46387909658313 0 0 1 103.4830980677978,11.213746312467919"/><text text-anchor="middle" pointer-events="none" font-size="8px" fill="#000000" x="71.61812222888649" y="15.998719562086137" transform="rotate(180 71.61812222888649 12.998719562086137)" font-family="Helvetica Neue, Helvetica, Arial, sans-serif">probably_knows</text></g><g class="relationship" transform="translate(-199.64435016471273 370.9248830147968) rotate(279.21256630220756)"><path class="b-outline" fill="#A5ABB6" stroke="none" d="M 24.018736134675446,6.953439040707552 L 24.277555179777966,5.987513214418485 A 188.2187188231101 188.2187188231101 0 0 0 39.16145596422156,9.335562313693913 L 38.98171460532108,10.319276217174291 A 189.2187188231101 189.2187188231101 0 0 1 24.018736134675446,6.953439040707552 Z M 102.65458506578081,11.061465999749771 L 102.49782234698492,10.073829705360112 A 188.2187188231101 188.2187188231101 0 0 0 117.45572024765228,7.073625424727192 L 116.74701959976224,4.158536508127865 L 124.37571116103238,5.9058387324169885 L 118.400654444839,10.960410646859629 L 117.69195379694897,8.045321730260302 A 189.2187188231101 189.2187188231101 0 0 1 102.65458506578081,11.061465999749771"/><text text-anchor="middle" pointer-events="none" font-size="8px" fill="#000000" x="70.7925325598427" y="15.88809130889544" font-family="Helvetica Neue, Helvetica, Arial, sans-serif">probably_knows</text></g><g class="relationship" transform="translate(-199.64435016471273 370.9248830147968) rotate(421.28524237461977)"><path class="b-outline" fill="#A5ABB6" stroke="none" d="M 24.018736134675446,-6.953439040707552 L 24.277555179777966,-5.987513214418485 A 176.5770015113334 176.5770015113334 0 0 1 36.232221428373215,-8.749439457336223 L 36.04110466695585,-9.731006767053344 A 177.5770015113334 177.5770015113334 0 0 0 24.018736134675446,-6.953439040707552 Z M 99.68341388328925,-10.50218821470341 L 99.51613789860389,-9.516278104730134 A 176.5770015113334 176.5770015113334 0 0 1 111.53421909108164,-7.044840033963947 L 110.82820688160814,-4.129098831443677 L 118.45528393187452,-5.883435078945826 L 112.47556870371298,-10.93249497065764 L 111.76955649423948,-8.01675376813737 A 177.5770015113334 177.5770015113334 0 0 0 99.68341388328925,-10.50218821470341"/><text text-anchor="middle" pointer-events="none" font-size="8px" fill="#000000" x="67.83348482651357" y="-9.491229766437812" font-family="Helvetica Neue, Helvetica, Arial, sans-serif">probably_knows</text></g><g class="relationship" transform="translate(-131.05869476906437 496.1225795748465) rotate(241.28524237461977)"><path class="b-outline" fill="#A5ABB6" stroke="none" d="M 24.018736134675446,-6.953439040707552 L 24.277555179777966,-5.987513214418485 A 176.5770015113334 176.5770015113334 0 0 1 36.232221428373215,-8.749439457336223 L 36.04110466695585,-9.731006767053344 A 177.5770015113334 177.5770015113334 0 0 0 24.018736134675446,-6.953439040707552 Z M 99.68341388328925,-10.50218821470341 L 99.51613789860389,-9.516278104730134 A 176.5770015113334 176.5770015113334 0 0 1 111.53421909108164,-7.044840033963947 L 110.82820688160814,-4.129098831443677 L 118.45528393187452,-5.883435078945826 L 112.47556870371298,-10.93249497065764 L 111.76955649423948,-8.01675376813737 A 177.5770015113334 177.5770015113334 0 0 0 99.68341388328925,-10.50218821470341"/><text text-anchor="middle" pointer-events="none" font-size="8px" fill="#000000" x="67.83348482651357" y="-9.491229766437812" transform="rotate(180 67.83348482651357 -12.491229766437812)" font-family="Helvetica Neue, Helvetica, Arial, sans-serif">probably_knows</text></g></g><g class="layer nodes"><g class="node" aria-label="graph-node2868466" transform="translate(12.083140877329107,340.1202593876758)"><circle class="b-outline" cx="0" cy="0" r="25" fill="#D9C8AE" stroke="#c0a378" stroke-width="2px"/><text class="caption" text-anchor="middle" pointer-events="none" x="0" y="-5" font-size="10px" fill="#2A2C34" font-family="Helvetica Neue, Helvetica, Arial, sans-serif"> Andrea</text><text class="caption" text-anchor="middle" pointer-events="none" x="0" y="5" font-size="10px" fill="#2A2C34" font-family="Helvetica Neue, Helvetica, Arial, sans-serif"> Bahgat</text><text class="caption" text-anchor="middle" pointer-events="none" x="0" y="15" font-size="10px" fill="#2A2C34" font-family="Helvetica Neue, Helvetica, Arial, sans-serif"> She…</text></g><g class="node" aria-label="graph-node370346" transform="translate(119.01667313224212,435.5244853118872)"><circle class="b-outline" cx="0" cy="0" r="25" fill="#D9C8AE" stroke="#c0a378" stroke-width="2px"/><text class="caption" text-anchor="middle" pointer-events="none" x="0" y="0" font-size="10px" fill="#2A2C34" font-family="Helvetica Neue, Helvetica, Arial, sans-serif"> Andrea</text><text class="caption" text-anchor="middle" pointer-events="none" x="0" y="10" font-size="10px" fill="#2A2C34" font-family="Helvetica Neue, Helvetica, Arial, sans-serif"> Corti</text></g><g class="node" aria-label="graph-node809778" transform="translate(145.57113167138118,287.91625719145327)"><circle class="b-outline" cx="0" cy="0" r="25" fill="#D9C8AE" stroke="#c0a378" stroke-width="2px"/><text class="caption" text-anchor="middle" pointer-events="none" x="0" y="0" font-size="10px" fill="#2A2C34" font-family="Helvetica Neue, Helvetica, Arial, sans-serif"> Chiara</text><text class="caption" text-anchor="middle" pointer-events="none" x="0" y="10" font-size="10px" fill="#2A2C34" font-family="Helvetica Neue, Helvetica, Arial, sans-serif"> Gianoli</text></g><g class="node" aria-label="graph-node370414" transform="translate(282.48369811935174,340.79112227110284)"><circle class="b-outline" cx="0" cy="0" r="25" fill="#D9C8AE" stroke="#c0a378" stroke-width="2px"/><text class="caption" text-anchor="middle" pointer-events="none" x="0" y="0" font-size="10px" fill="#2A2C34" font-family="Helvetica Neue, Helvetica, Arial, sans-serif"> Andrea</text><text class="caption" text-anchor="middle" pointer-events="none" x="0" y="10" font-size="10px" fill="#2A2C34" font-family="Helvetica Neue, Helvetica, Arial, sans-serif"> Darda…</text></g><g class="node" aria-label="graph-node1822949" transform="translate(290.5445144922258,193.55211544474204)"><circle class="b-outline" cx="0" cy="0" r="25" fill="#D9C8AE" stroke="#c0a378" stroke-width="2px"/><text class="caption" text-anchor="middle" pointer-events="none" x="0" y="-5" font-size="10px" fill="#2A2C34" font-family="Helvetica Neue, Helvetica, Arial, sans-serif"> Nicolò</text><text class="caption" text-anchor="middle" pointer-events="none" x="0" y="5" font-size="10px" fill="#2A2C34" font-family="Helvetica Neue, Helvetica, Arial, sans-serif"> Maria</text><text class="caption" text-anchor="middle" pointer-events="none" x="0" y="15" font-size="10px" fill="#2A2C34" font-family="Helvetica Neue, Helvetica, Arial, sans-serif"> Cal…</text></g><g class="node" aria-label="graph-node1692450" transform="translate(435.36442233701894,228.2782219217497)"><circle class="b-outline" cx="0" cy="0" r="25" fill="#D9C8AE" stroke="#c0a378" stroke-width="2px"/><text class="caption" text-anchor="middle" pointer-events="none" x="0" y="0" font-size="10px" fill="#2A2C34" font-family="Helvetica Neue, Helvetica, Arial, sans-serif"> Chiara</text><text class="caption" text-anchor="middle" pointer-events="none" x="0" y="10" font-size="10px" fill="#2A2C34" font-family="Helvetica Neue, Helvetica, Arial, sans-serif"> Corsini</text></g><g class="node" aria-label="graph-node1126131" transform="translate(425.9783530235357,84.93858250709421)"><circle class="b-outline" cx="0" cy="0" r="25" fill="#D9C8AE" stroke="#c0a378" stroke-width="2px"/><text class="caption" text-anchor="middle" pointer-events="none" x="0" y="0" font-size="10px" fill="#2A2C34" font-family="Helvetica Neue, Helvetica, Arial, sans-serif"> Marco</text><text class="caption" text-anchor="middle" pointer-events="none" x="0" y="10" font-size="10px" fill="#2A2C34" font-family="Helvetica Neue, Helvetica, Arial, sans-serif"> Bonvini</text></g><g class="node" aria-label="graph-node882305" transform="translate(435.92740908569624,-55.96899570565201)"><circle class="b-outline" cx="0" cy="0" r="25" fill="#D9C8AE" stroke="#c0a378" stroke-width="2px"/><text class="caption" text-anchor="middle" pointer-events="none" x="0" y="-5" font-size="10px" fill="#2A2C34" font-family="Helvetica Neue, Helvetica, Arial, sans-serif"> Maria</text><text class="caption" text-anchor="middle" pointer-events="none" x="0" y="5" font-size="10px" fill="#2A2C34" font-family="Helvetica Neue, Helvetica, Arial, sans-serif"> Giulia</text><text class="caption" text-anchor="middle" pointer-events="none" x="0" y="15" font-size="10px" fill="#2A2C34" font-family="Helvetica Neue, Helvetica, Arial, sans-serif"> Preti</text></g><g class="node" aria-label="graph-node834072" transform="translate(427.45542530033885,-197.78463998052513)"><circle class="b-outline" cx="0" cy="0" r="25" fill="#D9C8AE" stroke="#c0a378" stroke-width="2px"/><text class="caption" text-anchor="middle" pointer-events="none" x="0" y="0" font-size="10px" fill="#2A2C34" font-family="Helvetica Neue, Helvetica, Arial, sans-serif"> Alexandre</text><text class="caption" text-anchor="middle" pointer-events="none" x="0" y="10" font-size="10px" fill="#2A2C34" font-family="Helvetica Neue, Helvetica, Arial, sans-serif">Fe…</text></g><g class="node" aria-label="graph-node484300" transform="translate(281.5952581823087,-160.90380886185582)"><circle class="b-outline" cx="0" cy="0" r="25" fill="#D9C8AE" stroke="#c0a378" stroke-width="2px"/><text class="caption" text-anchor="middle" pointer-events="none" x="0" y="0" font-size="10px" fill="#2A2C34" font-family="Helvetica Neue, Helvetica, Arial, sans-serif"> Marta</text><text class="caption" text-anchor="middle" pointer-events="none" x="0" y="10" font-size="10px" fill="#2A2C34" font-family="Helvetica Neue, Helvetica, Arial, sans-serif"> Gand…</text></g><g class="node" aria-label="graph-node740502" transform="translate(316.8388710374505,-305.5202346757371)"><circle class="b-outline" cx="0" cy="0" r="25" fill="#D9C8AE" stroke="#c0a378" stroke-width="2px"/><text class="caption" text-anchor="middle" pointer-events="none" x="0" y="0" font-size="10px" fill="#2A2C34" font-family="Helvetica Neue, Helvetica, Arial, sans-serif"> Antimo</text><text class="caption" text-anchor="middle" pointer-events="none" x="0" y="10" font-size="10px" fill="#2A2C34" font-family="Helvetica Neue, Helvetica, Arial, sans-serif"> Barbato</text></g><g class="node" aria-label="graph-node147702" transform="translate(204.1361260034806,-392.88633589459204)"><circle class="b-outline" cx="0" cy="0" r="25" fill="#D9C8AE" stroke="#c0a378" stroke-width="2px"/><text class="caption" text-anchor="middle" pointer-events="none" x="0" y="0" font-size="10px" fill="#2A2C34" font-family="Helvetica Neue, Helvetica, Arial, sans-serif"> Stefano</text><text class="caption" text-anchor="middle" pointer-events="none" x="0" y="10" font-size="10px" fill="#2A2C34" font-family="Helvetica Neue, Helvetica, Arial, sans-serif"> Facchi…</text></g><g class="node" aria-label="graph-node125395" transform="translate(94.29393115926173,-292.49598835279517)"><circle class="b-outline" cx="0" cy="0" r="25" fill="#D9C8AE" stroke="#c0a378" stroke-width="2px"/><text class="caption" text-anchor="middle" pointer-events="none" x="0" y="0" font-size="10px" fill="#2A2C34" font-family="Helvetica Neue, Helvetica, Arial, sans-serif"> Cesare</text><text class="caption" text-anchor="middle" pointer-events="none" x="0" y="10" font-size="10px" fill="#2A2C34" font-family="Helvetica Neue, Helvetica, Arial, sans-serif"> Buffa</text></g><g class="node" aria-label="graph-node1197383" transform="translate(49.0092219874537,-435.0194206200024)"><circle class="b-outline" cx="0" cy="0" r="25" fill="#D9C8AE" stroke="#c0a378" stroke-width="2px"/><text class="caption" text-anchor="middle" pointer-events="none" x="0" y="0" font-size="10px" fill="#2A2C34" font-family="Helvetica Neue, Helvetica, Arial, sans-serif"> Andrea</text><text class="caption" text-anchor="middle" pointer-events="none" x="0" y="10" font-size="10px" fill="#2A2C34" font-family="Helvetica Neue, Helvetica, Arial, sans-serif"> Fanelli</text></g><g class="node" aria-label="graph-node1913449" transform="translate(-95.06057409996694,-434.4438073315354)"><circle class="b-outline" cx="0" cy="0" r="25" fill="#D9C8AE" stroke="#c0a378" stroke-width="2px"/><text class="caption" text-anchor="middle" pointer-events="none" x="0" y="0" font-size="10px" fill="#2A2C34" font-family="Helvetica Neue, Helvetica, Arial, sans-serif"> Paolo</text><text class="caption" text-anchor="middle" pointer-events="none" x="0" y="10" font-size="10px" fill="#2A2C34" font-family="Helvetica Neue, Helvetica, Arial, sans-serif"> Busca</text></g><g class="node" aria-label="graph-node835438" transform="translate(-112.6235554791498,-285.4832904770839)"><circle class="b-outline" cx="0" cy="0" r="25" fill="#D9C8AE" stroke="#c0a378" stroke-width="2px"/><text class="caption" text-anchor="middle" pointer-events="none" x="0" y="0" font-size="10px" fill="#2A2C34" font-family="Helvetica Neue, Helvetica, Arial, sans-serif"> Sofia</text><text class="caption" text-anchor="middle" pointer-events="none" x="0" y="10" font-size="10px" fill="#2A2C34" font-family="Helvetica Neue, Helvetica, Arial, sans-serif"> Ceppi</text></g><g class="node" aria-label="graph-node921139" transform="translate(-240.0108384901954,-361.4117040982987)"><circle class="b-outline" cx="0" cy="0" r="25" fill="#D9C8AE" stroke="#c0a378" stroke-width="2px"/><text class="caption" text-anchor="middle" pointer-events="none" x="0" y="0" font-size="10px" fill="#2A2C34" font-family="Helvetica Neue, Helvetica, Arial, sans-serif"> Simone</text><text class="caption" text-anchor="middle" pointer-events="none" x="0" y="10" font-size="10px" fill="#2A2C34" font-family="Helvetica Neue, Helvetica, Arial, sans-serif"> Corbe…</text></g><g class="node" aria-label="graph-node803865" transform="translate(-352.9798232868333,-272.87230426692787)"><circle class="b-outline" cx="0" cy="0" r="25" fill="#D9C8AE" stroke="#c0a378" stroke-width="2px"/><text class="caption" text-anchor="middle" pointer-events="none" x="0" y="0" font-size="10px" fill="#2A2C34" font-family="Helvetica Neue, Helvetica, Arial, sans-serif"> Marco</text><text class="caption" text-anchor="middle" pointer-events="none" x="0" y="10" font-size="10px" fill="#2A2C34" font-family="Helvetica Neue, Helvetica, Arial, sans-serif"> Berga…</text></g><g class="node" aria-label="graph-node250563" transform="translate(-267.3600332479614,-149.3122935582071)"><circle class="b-outline" cx="0" cy="0" r="25" fill="#D9C8AE" stroke="#c0a378" stroke-width="2px"/><text class="caption" text-anchor="middle" pointer-events="none" x="0" y="0" font-size="10px" fill="#2A2C34" font-family="Helvetica Neue, Helvetica, Arial, sans-serif"> Antonio</text><text class="caption" text-anchor="middle" pointer-events="none" x="0" y="10" font-size="10px" fill="#2A2C34" font-family="Helvetica Neue, Helvetica, Arial, sans-serif"> Filieri</text></g><g class="node" aria-label="graph-node2585634" transform="translate(-414.9915892405856,-128.0054623094057)"><circle class="b-outline" cx="0" cy="0" r="25" fill="#D9C8AE" stroke="#c0a378" stroke-width="2px"/><text class="caption" text-anchor="middle" pointer-events="none" x="0" y="0" font-size="10px" fill="#2A2C34" font-family="Helvetica Neue, Helvetica, Arial, sans-serif"> Simone</text><text class="caption" text-anchor="middle" pointer-events="none" x="0" y="10" font-size="10px" fill="#2A2C34" font-family="Helvetica Neue, Helvetica, Arial, sans-serif"> Bellisai</text></g><g class="node" aria-label="graph-node300779" transform="translate(-454.8301513831308,10.301990702277028)"><circle class="b-outline" cx="0" cy="0" r="25" fill="#D9C8AE" stroke="#c0a378" stroke-width="2px"/><text class="caption" text-anchor="middle" pointer-events="none" x="0" y="0" font-size="10px" fill="#2A2C34" font-family="Helvetica Neue, Helvetica, Arial, sans-serif"> Matteo</text><text class="caption" text-anchor="middle" pointer-events="none" x="0" y="10" font-size="10px" fill="#2A2C34" font-family="Helvetica Neue, Helvetica, Arial, sans-serif"> Crotti</text></g><g class="node" aria-label="graph-node779807" transform="translate(-316.09102856597565,64.27840195997996)"><circle class="b-outline" cx="0" cy="0" r="25" fill="#D9C8AE" stroke="#c0a378" stroke-width="2px"/><text class="caption" text-anchor="middle" pointer-events="none" x="0" y="0" font-size="10px" fill="#2A2C34" font-family="Helvetica Neue, Helvetica, Arial, sans-serif"> Alfonso</text><text class="caption" text-anchor="middle" pointer-events="none" x="0" y="10" font-size="10px" fill="#2A2C34" font-family="Helvetica Neue, Helvetica, Arial, sans-serif"> Mastr…</text></g><g class="node" aria-label="graph-node1672250" transform="translate(-416.2008445868395,175.22767949252068)"><circle class="b-outline" cx="0" cy="0" r="25" fill="#D9C8AE" stroke="#c0a378" stroke-width="2px"/><text class="caption" text-anchor="middle" pointer-events="none" x="0" y="-5" font-size="10px" fill="#2A2C34" font-family="Helvetica Neue, Helvetica, Arial, sans-serif"> Leandro</text><text class="caption" text-anchor="middle" pointer-events="none" x="0" y="5" font-size="10px" fill="#2A2C34" font-family="Helvetica Neue, Helvetica, Arial, sans-serif"> Sales</text><text class="caption" text-anchor="middle" pointer-events="none" x="0" y="15" font-size="10px" fill="#2A2C34" font-family="Helvetica Neue, Helvetica, Arial, sans-serif"> Pinto</text></g><g class="node" aria-label="graph-node648877" transform="translate(-316.1114558930694,278.2149768024276)"><circle class="b-outline" cx="0" cy="0" r="25" fill="#D9C8AE" stroke="#c0a378" stroke-width="2px"/><text class="caption" text-anchor="middle" pointer-events="none" x="0" y="0" font-size="10px" fill="#2A2C34" font-family="Helvetica Neue, Helvetica, Arial, sans-serif"> Simone</text><text class="caption" text-anchor="middle" pointer-events="none" x="0" y="10" font-size="10px" fill="#2A2C34" font-family="Helvetica Neue, Helvetica, Arial, sans-serif"> Ceriani</text></g><g class="node" aria-label="graph-node2962008" transform="translate(-175.84292838144975,224.17440816569842)"><circle class="b-outline" cx="0" cy="0" r="25" fill="#D9C8AE" stroke="#c0a378" stroke-width="2px"/><text class="caption" text-anchor="middle" pointer-events="none" x="0" y="-5" font-size="10px" fill="#2A2C34" font-family="Helvetica Neue, Helvetica, Arial, sans-serif"> Paolo</text><text class="caption" text-anchor="middle" pointer-events="none" x="0" y="5" font-size="10px" fill="#2A2C34" font-family="Helvetica Neue, Helvetica, Arial, sans-serif"> Roberto</text><text class="caption" text-anchor="middle" pointer-events="none" x="0" y="15" font-size="10px" fill="#2A2C34" font-family="Helvetica Neue, Helvetica, Arial, sans-serif"> Grass</text></g><g class="node" aria-label="graph-node2874763" transform="translate(-199.64435016471273,370.9248830147968)"><circle class="b-outline" cx="0" cy="0" r="25" fill="#D9C8AE" stroke="#c0a378" stroke-width="2px"/><text class="caption" text-anchor="middle" pointer-events="none" x="0" y="0" font-size="10px" fill="#2A2C34" font-family="Helvetica Neue, Helvetica, Arial, sans-serif"> Carmine</text><text class="caption" text-anchor="middle" pointer-events="none" x="0" y="10" font-size="10px" fill="#2A2C34" font-family="Helvetica Neue, Helvetica, Arial, sans-serif"> Miccoli</text></g><g class="node" aria-label="graph-node671214" transform="translate(-131.05869476906437,496.1225795748465)"><circle class="b-outline" cx="0" cy="0" r="25" fill="#D9C8AE" stroke="#c0a378" stroke-width="2px"/><text class="caption" text-anchor="middle" pointer-events="none" x="0" y="0" font-size="10px" fill="#2A2C34" font-family="Helvetica Neue, Helvetica, Arial, sans-serif"> Serena</text><text class="caption" text-anchor="middle" pointer-events="none" x="0" y="10" font-size="10px" fill="#2A2C34" font-family="Helvetica Neue, Helvetica, Arial, sans-serif"> Fiocchi</text></g></g></svg>